<svg xmlns="http://www.w3.org/2000/svg" xmlns:xlink="http://www.w3.org/1999/xlink" width="71.28" height="101.597" viewBox="0 0 71.28 101.597">
  <defs>
    <clipPath id="clip-logo-geca-certified">
      <rect width="71.28" height="101.597"/>
    </clipPath>
  </defs>
  <g id="logo-geca-certified" clip-path="url(#clip-logo-geca-certified)">
    <g id="logo-geca-certified-2" data-name="logo-geca-certified">
      <path id="Pfad_2130" data-name="Pfad 2130" d="M13.633,24.323A16.1,16.1,0,0,0,29.339,12h8.216A23.993,23.993,0,0,1,13.633,32.3,32.747,32.747,0,0,1,8.8,31.814V23.6a10.712,10.712,0,0,0,4.833.725ZM34.413,14.9H33.93l-.483,1.208.483.242-.242.967-2.9-2.175.242-.967,3.625-.242-.242.967Zm-2.658,0,1.208.967.242-.967Zm-1.933,2.416,3.141,1.45.483-.725-3.141-1.45C30.306,16.349,29.822,17.316,29.822,17.316Zm1.45,4.108-2.9-1.933.483-.725,2.175,1.45.725-1.208.725.483-1.208,1.933Zm-1.45.967.483.242.725-.725L27.648,20.7l-.725.967,1.691,3.141.725-.725L29.1,23.6l.725-1.208Zm-1.45.242-.725-.967,1.208.483-.483.483Zm-1.208,2.9-1.208-.483-.242.242.725.967-.725.242L23.54,23.84l1.45-.967a1.166,1.166,0,0,1,1.691.242,1.079,1.079,0,0,1,0,1.208l1.45.483-.967.725ZM25.956,23.6c-.242-.242-.242-.242-.483,0l-.725.483.483.483.483-.483c.242,0,.242-.242.242-.483ZM22.09,25.532,23.3,27.948l.725-.483-1.208-2.416.967-.483-.483-.483L20.882,25.29l.242.725.967-.483Zm-3.383,3.625.242-.725a1.079,1.079,0,0,0,1.208,0c.242,0,.483-.242.242-.483q0-.362-.725,0h0c-.483,0-1.45.242-1.691-.483-.242-.483,0-1.208.967-1.45a1.54,1.54,0,0,1,1.45,0V26.5a.735.735,0,0,0-.967,0,.237.237,0,0,0-.242.242h.725c.483,0,1.45-.242,1.691.483s0,1.208-.967,1.45c-.967.725-1.45.725-1.933.483ZM14.358,26.74l.242,1.933c0,.967.725,1.45,1.933,1.208a1.6,1.6,0,0,0,1.45-1.691l-.242-1.933-.967.242.242,1.933a.641.641,0,0,1-.725.725c-.483,0-.725-.242-.725-.483l-.242-1.933Zm-.967,2.9.242.483H14.6L13.391,26.74H12.183l-1.45,3.383H11.7l.242-.483Zm-1.208-.725.483-1.208.483,1.208Z" transform="translate(12.464 16.996)" fill="#0c0c0c" fill-rule="evenodd"/>
      <path id="Pfad_2131" data-name="Pfad 2131" d="M10.4,42.258A2.682,2.682,0,0,1,13.058,39.6a2.538,2.538,0,0,1,2.175,1.208l-.725.483a1.329,1.329,0,0,0-1.208-.725A1.906,1.906,0,0,0,11.367,42.5,1.778,1.778,0,0,0,13.3,44.433a1.329,1.329,0,0,0,1.208-.725l.725.483A2.265,2.265,0,0,1,13.058,45.4C11.608,44.916,10.4,43.949,10.4,42.258Z" transform="translate(14.73 56.088)" fill="#0c0c0c"/>
      <path id="Pfad_2132" data-name="Pfad 2132" d="M12.9,44.774V39.7h3.625v.725H13.867v1.208h2.658v.725H13.867v1.45h2.658v.725l-3.625.242Z" transform="translate(18.271 56.229)" fill="#0c0c0c"/>
      <path id="Pfad_2133" data-name="Pfad 2133" d="M17.9,44.774l-1.208-1.933h-.967v1.933H15V39.7h2.175a1.652,1.652,0,0,1,1.691,1.691c0,.967-.483,1.45-1.208,1.45l1.208,1.933Zm0-3.625c0-.483-.242-.725-.967-.725H15.725v1.691h1.208A.885.885,0,0,0,17.9,41.15Z" transform="translate(21.245 56.229)" fill="#0c0c0c"/>
      <path id="Pfad_2134" data-name="Pfad 2134" d="M18.45,44.774V40.425H17V39.7h4.108v.725H19.416v4.349Z" transform="translate(24.078 56.229)" fill="#0c0c0c"/>
      <path id="Pfad_2135" data-name="Pfad 2135" d="M19.2,44.774V39.7h.967v5.074Z" transform="translate(27.194 56.229)" fill="#0c0c0c"/>
      <path id="Pfad_2136" data-name="Pfad 2136" d="M20.2,44.774V39.7h3.625v.725H21.167v1.208h2.658v.725H21.167v2.175l-.967.242Z" transform="translate(28.61 56.229)" fill="#0c0c0c"/>
      <path id="Pfad_2137" data-name="Pfad 2137" d="M22.3,44.774V39.7h.967v5.074Z" transform="translate(31.585 56.229)" fill="#0c0c0c"/>
      <path id="Pfad_2138" data-name="Pfad 2138" d="M23.4,44.774V39.7h3.625v.725H24.367v1.208h2.658v.725H24.367v1.45h2.658v.725l-3.625.242Z" transform="translate(33.143 56.229)" fill="#0c0c0c"/>
      <path id="Pfad_2139" data-name="Pfad 2139" d="M25.5,44.774V39.7h1.933a2.417,2.417,0,0,1,2.658,2.658,2.349,2.349,0,0,1-2.658,2.416Zm3.866-2.658a1.652,1.652,0,0,0-1.691-1.691h-.967v3.625h.967a1.867,1.867,0,0,0,1.691-1.933Z" transform="translate(36.117 56.229)" fill="#0c0c0c"/>
      <path id="Pfad_2140" data-name="Pfad 2140" d="M39.246,12h11.84a6.239,6.239,0,0,1,6.283,6.283V53.8a6.19,6.19,0,0,1-6.283,6.041H8.8V36.164h0V33.747a29.746,29.746,0,0,0,4.833.483A25.816,25.816,0,0,0,39.246,12ZM26.681,46.312c8.7-14.257,26.1-24.405,26.1-24.405s.483,1.691-1.933,4.349l-1.691,1.691c-3.141,3.141-8.7,8.457-12.323,14.015q-2.175,3.625-3.625,5.8c-1.933,3.141-3.141,5.074-5.074,6.524,0,0-2.9.483-4.349-.242-.967-2.9-3.141-5.316-4.591-7.007a.237.237,0,0,0-.242-.242c-.242,0-.242,0-.242-.242-.242-.242-.242-.483-.483-.483A3.336,3.336,0,0,1,17.5,45.1h0c-.483-1.933,3.625-4.349,5.074-4.108,1.933.483,3.383,3.383,4.108,5.316Z" transform="translate(12.464 16.996)" fill="#0c0c0c" fill-rule="evenodd"/>
      <path id="Pfad_2141" data-name="Pfad 2141" d="M1.691,25.613A24.084,24.084,0,0,1,26.1,1.691,23.876,23.876,0,0,1,50.26,25.613,14.86,14.86,0,0,1,50.019,29H51.71a15.953,15.953,0,0,0,.242-3.383A25.834,25.834,0,0,0,26.1,0C11.84,0,0,11.6,0,25.613a25.657,25.657,0,0,0,21.264,25.13V49.052A24.062,24.062,0,0,1,1.691,25.613Z" fill="#0c0c0c"/>
      <path id="Pfad_2142" data-name="Pfad 2142" d="M35.329,19.523a15.467,15.467,0,0,0-30.929,0,15.467,15.467,0,0,0,30.929,0ZM30.98,16.382a12.043,12.043,0,0,0-8.216-1.45V14.69h0v-.725A13.668,13.668,0,0,0,20.831,7.2l-.242-.483h-.483A13.222,13.222,0,0,0,8.991,20.49,13.169,13.169,0,0,0,10.2,25.806h0c.242.242.242.725.483.967a4.346,4.346,0,0,0,2.175,1.45c.967.242,1.933.483,2.658.725.483,0,1.208.242,1.691.242a13.542,13.542,0,0,0,11.115-5.8,15.939,15.939,0,0,0,2.658-6.283v-.725ZM20.106,8.408a11.225,11.225,0,0,1,1.45,5.558v1.208a14.672,14.672,0,0,0-7.974,5.316,18.3,18.3,0,0,0-2.175,4.349,28.1,28.1,0,0,1-.967-4.349A11.6,11.6,0,0,1,20.106,8.408Zm1.208,8.216a11.9,11.9,0,0,1-8.941,9.665,17.442,17.442,0,0,1,2.175-4.833A14.178,14.178,0,0,1,21.314,16.623ZM27.6,22.664a12.374,12.374,0,0,1-14.015,4.591,13.354,13.354,0,0,0,9.182-10.874,10.189,10.189,0,0,1,7.007,1.208A10.509,10.509,0,0,1,27.6,22.664Z" transform="translate(6.232 6.09)" fill="#0c0c0c" fill-rule="evenodd"/>
      <path id="Pfad_2143" data-name="Pfad 2143" d="M9.525,19.934a1.926,1.926,0,0,1-2.9.725A1.8,1.8,0,0,1,5.9,18.968h.967a1.453,1.453,0,0,0,.242.967A1.274,1.274,0,0,0,8.8,19.451a1.168,1.168,0,0,0,0-1.691.888.888,0,0,0-.725-.242l-.242.242.725.483-.483.967-1.45-.967.967-1.45a1.892,1.892,0,0,1,1.933.242,2.539,2.539,0,0,1,0,2.9Z" transform="translate(8.357 23.56)" fill="#0c0c0c"/>
      <path id="Pfad_2144" data-name="Pfad 2144" d="M8.144,19.26A2.277,2.277,0,0,1,5,19.5a2,2,0,0,1,.242-2.9c.967-.967,2.175-1.208,3.141-.242A2,2,0,0,1,8.144,19.26ZM5.969,17.327c-.483.483-.725,1.208-.242,1.45a1.194,1.194,0,0,0,1.691-.242,1.194,1.194,0,0,0,.242-1.691A1.274,1.274,0,0,0,5.969,17.327Z" transform="translate(6.354 22.301)" fill="#0c0c0c"/>
      <path id="Pfad_2145" data-name="Pfad 2145" d="M6.78,18.018a2.257,2.257,0,0,1-3.141,0,1.926,1.926,0,0,1,.725-2.9c1.208-.725,2.416-.725,3.141,0A2.424,2.424,0,0,1,6.78,18.018ZM4.847,15.844c-.483.483-.725,1.208-.483,1.45.483.483.967.483,1.691,0A1.6,1.6,0,0,0,6.539,15.6C6.3,15.119,5.572,15.36,4.847,15.844Z" transform="translate(4.577 20.643)" fill="#0c0c0c"/>
      <path id="Pfad_2146" data-name="Pfad 2146" d="M7.328,15.48,3.462,17.655l-.725-1.45A1.847,1.847,0,0,1,3.7,13.547c1.208-.725,2.416-.483,2.9.483l.725,1.45Zm-3.141-.967c-.725.242-.967.967-.483,1.45l.242.483L6.12,15.239l-.242-.483A1.488,1.488,0,0,0,4.187,14.514Z" transform="translate(3.546 18.59)" fill="#0c0c0c"/>
      <path id="Pfad_2147" data-name="Pfad 2147" d="M6.674,14.241l-4.591.725L1.6,12.308l.967-.242.242,1.691.725-.242-.242-1.691.967-.242L4.5,13.275l.725-.242-.242-1.691.967-.242.725,3.141Z" transform="translate(2.266 15.722)" fill="#0c0c0c"/>
      <path id="Pfad_2148" data-name="Pfad 2148" d="M6.191,10.625l-2.658,1.45H6.191v.967H1.6v-.967l2.416-1.45H1.6V9.9H6.191v.725Z" transform="translate(2.266 14.022)" fill="#0c0c0c"/>
      <path id="Pfad_2149" data-name="Pfad 2149" d="M6.433,11.383,1.6,11.866l.242-.967,3.383-.242-2.9-1.691L2.567,8l4.108,2.175-.242,1.208Z" transform="translate(2.266 11.331)" fill="#0c0c0c"/>
      <path id="Pfad_2150" data-name="Pfad 2150" d="M6.208,9.816,2.1,8.125,2.583,7.4,6.691,9.091S6.208,10.058,6.208,9.816Z" transform="translate(2.974 10.481)" fill="#0c0c0c"/>
      <path id="Pfad_2151" data-name="Pfad 2151" d="M7.233,8.671l-1.45-.242-.242.483,1.45.725-.483.725L2.4,8.187,3.125,6.5a1.462,1.462,0,0,1,1.933-.242c.725.483.967.967.725,1.208L7.716,7.7l-.483.967ZM4.575,7.221c-.242-.242-.483,0-.725.242l-.242.483.967.483L5.058,7.7a.473.473,0,0,0-.483-.483Z" transform="translate(3.399 8.485)" fill="#0c0c0c"/>
      <path id="Pfad_2152" data-name="Pfad 2152" d="M4.43,8.415a2.322,2.322,0,0,1-.483-3.141,2.243,2.243,0,0,1,3.141,0c1.208.967,1.208,2.175.483,2.9A2.259,2.259,0,0,1,4.43,8.415ZM6.363,6c-.725-.242-1.208-.483-1.691,0S4.43,7.207,5.155,7.69a1.168,1.168,0,0,0,1.691,0A1.6,1.6,0,0,0,6.363,6Z" transform="translate(4.993 6.566)" fill="#0c0c0c"/>
      <path id="Pfad_2153" data-name="Pfad 2153" d="M9.333,7.308,6.433,6.1,8.125,8.033l-.967.725L4.5,5.133l.725-.483L7.883,5.858,6.433,3.683,7.158,3.2,9.816,6.825l-.483.483Z" transform="translate(6.374 4.532)" fill="#0c0c0c"/>
      <path id="Pfad_2154" data-name="Pfad 2154" d="M11.074,6.408,9.625,3.75l.483,2.9-.242.242L7.691,4.716,8.9,7.374l-.725.242L6,3.75l1.208-.483L8.9,5.2,8.416,2.783,9.625,2.3l1.933,4.108Z" transform="translate(8.498 3.258)" fill="#0c0c0c"/>
      <path id="Pfad_2155" data-name="Pfad 2155" d="M9.067,6.774,8.1,2.425,10.758,1.7,11,2.667,9.308,3.15l.242.725,1.691-.483.242.967L9.55,4.841l.242.725,1.691-.483.242.967-2.658.725Z" transform="translate(11.472 2.408)" fill="#0c0c0c"/>
      <path id="Pfad_2156" data-name="Pfad 2156" d="M12.5,6.191,10.808,3.775l.242,2.658h-.967L9.6,1.6h.967l1.45,2.416V1.6h.967l.242,4.591C13.225,5.949,12.5,6.191,12.5,6.191Z" transform="translate(13.597 2.266)" fill="#0c0c0c"/>
      <path id="Pfad_2157" data-name="Pfad 2157" d="M11.783,6.049l.483-3.383H11.3l.242-.967,2.9.242-.242.967h-.967L12.75,6.291l-.967-.242Z" transform="translate(16.005 2.408)" fill="#0c0c0c"/>
      <path id="Pfad_2158" data-name="Pfad 2158" d="M14.9,6.733V6.008l-1.45-.483-.242.483L12,5.766,14.658,1.9l1.208.242V6.733Zm0-3.625-.967,1.45L14.9,4.8Z" transform="translate(16.996 2.691)" fill="#0c0c0c"/>
      <path id="Pfad_2159" data-name="Pfad 2159" d="M13.6,6.408,15.775,2.3l.967.483-1.45,3.141,1.208.725-.483.967L13.6,6.408Z" transform="translate(19.262 3.258)" fill="#0c0c0c"/>
      <path id="Pfad_2160" data-name="Pfad 2160" d="M16.045,4.445A2.277,2.277,0,0,1,19.186,4.2a1.516,1.516,0,0,1,.242,1.933l-.967-.242a.735.735,0,0,0,0-.967,1.168,1.168,0,0,0-1.691,0,1.194,1.194,0,0,0-.242,1.691,1.453,1.453,0,0,0,.967.242l.242.967A1.892,1.892,0,0,1,15.8,7.586a2.277,2.277,0,0,1,.242-3.141Z" transform="translate(21.651 5.221)" fill="#0c0c0c"/>
      <path id="Pfad_2161" data-name="Pfad 2161" d="M17.55,9.191,19,7.983l-.967-1.208-1.45,1.208L16.1,7.258,19.725,4.6l.483.725-1.45.967L19.725,7.5l1.45-.967.483.725L18.033,9.916Z" transform="translate(22.803 6.515)" fill="#0c0c0c"/>
      <path id="Pfad_2162" data-name="Pfad 2162" d="M18.617,6.747c1.208-.725,2.416-.483,2.9.483a2.283,2.283,0,0,1-1.208,2.9c-1.208.725-2.416.483-2.9-.483A2.132,2.132,0,0,1,18.617,6.747Zm1.45,2.416q1.087-.725.725-1.45c-.242-.483-.967-.483-1.691-.242q-1.087.725-.725,1.45A1.127,1.127,0,0,0,20.067,9.163Z" transform="translate(24.394 8.959)" fill="#0c0c0c"/>
      <path id="Pfad_2163" data-name="Pfad 2163" d="M17.6,9.108,21.949,7.9l.242.967-4.349,1.208Z" transform="translate(24.928 11.189)" fill="#0c0c0c"/>
      <path id="Pfad_2164" data-name="Pfad 2164" d="M19.855,8.727a2.152,2.152,0,0,1,2.658,1.45,1.454,1.454,0,0,1-.967,1.691l-.483-.725a1.255,1.255,0,0,0,.483-.967c0-.483-.725-.967-1.45-.725a1.294,1.294,0,0,0-1.208,1.208c0,.242.483.483.725.725l-.242.967a1.8,1.8,0,0,1-1.45-1.45,1.85,1.85,0,0,1,1.933-2.175Z" transform="translate(25.331 12.295)" fill="#0c0c0c"/>
      <path id="Pfad_2165" data-name="Pfad 2165" d="M18,10.442l4.591-.242.242,2.658h-.967V11.167h-.725v1.691h-.967V11.167H19.45v1.691h-.967L18,10.442Z" transform="translate(25.494 14.447)" fill="#0c0c0c"/>
      <path id="Pfad_2166" data-name="Pfad 2166" d="M20.24,39.624c.242,0,.725.242.725.483v4.349c0,.242,0,.242-.242.483a6.747,6.747,0,0,1-5.316,2.175,7.007,7.007,0,0,1,0-14.015,6.581,6.581,0,0,1,5.074,2.175c.242.242.242.725,0,.725a.735.735,0,0,1-.967,0,6.855,6.855,0,0,0-4.108-1.691,5.8,5.8,0,1,0,4.108,9.907V40.832H15.407a.772.772,0,0,1-.725-.725.641.641,0,0,1,.725-.725l4.833.242Z" transform="translate(11.897 46.881)" fill="#0c0c0c"/>
      <path id="Pfad_2167" data-name="Pfad 2167" d="M14.7,33.925a.641.641,0,0,1,.725-.725h8.7a.772.772,0,0,1,.725.725.641.641,0,0,1-.725.725H16.15v2.9a.641.641,0,0,1-.725.725.641.641,0,0,1-.725-.725V33.925Zm.725,5.558h7.249a.772.772,0,0,1,.725.725.641.641,0,0,1-.725.725H15.908v4.833h7.974a.772.772,0,0,1,.725.725.641.641,0,0,1-.725.725H15.425a.772.772,0,0,1-.725-.725V40.449c0-.725.242-.967.725-.967Z" transform="translate(20.82 47.023)" fill="#0c0c0c"/>
      <path id="Pfad_2168" data-name="Pfad 2168" d="M31.282,36.241a.735.735,0,0,1-.967,0,6.855,6.855,0,0,0-4.108-1.691,5.8,5.8,0,1,0,4.108,9.907.735.735,0,0,1,.967,0c.242.242.242.725,0,.725a7.8,7.8,0,0,1-5.074,1.933,7.007,7.007,0,1,1,5.074-11.84.735.735,0,0,1,0,.967Z" transform="translate(27.194 46.881)" fill="#0c0c0c"/>
      <path id="Pfad_2169" data-name="Pfad 2169" d="M30.5,35.375,25.908,46.49a.52.52,0,0,1-.483.483c-.242,0-.725-.242-.725-.483v-.242l5.316-12.565a.483.483,0,0,1,.967,0l2.9,7.249v.242c0,.483-.242.483-.725.483a.52.52,0,0,1-.483-.483Zm3.866,7.007a.52.52,0,0,1,.483.483l1.45,3.141v.242c0,.483-.242.483-.725.483a.52.52,0,0,1-.483-.483l-1.208-2.9H28.808a.772.772,0,0,1-.725-.725.641.641,0,0,1,.725-.725l5.558.483Z" transform="translate(34.984 47.023)" fill="#0c0c0c"/>
    </g>
  </g>
</svg>
