<svg xmlns="http://www.w3.org/2000/svg" xmlns:xlink="http://www.w3.org/1999/xlink" width="59" height="86" viewBox="0 0 59 86">
  <defs>
    <clipPath id="clip-logo-fsc">
      <rect width="59" height="86"/>
    </clipPath>
  </defs>
  <g id="logo-fsc" clip-path="url(#clip-logo-fsc)">
    <g id="logo-fsc-2" data-name="logo-fsc">
      <path id="Pfad_2092" data-name="Pfad 2092" d="M59,2.917V66.373c-.048.143-.1.27-.127.4A3.108,3.108,0,0,1,56.495,69.1a5.7,5.7,0,0,1-1.268.1H3.631c-.206,0-.4,0-.6-.016a3.15,3.15,0,0,1-1.9-.793,4.011,4.011,0,0,1-1.11-2.03Q-.008,34.653,0,2.917c.032-.111.063-.206.1-.317A3.236,3.236,0,0,1,2,.285,7.481,7.481,0,0,1,2.838,0H56.162a2.9,2.9,0,0,0,.4.127,3.236,3.236,0,0,1,2.188,1.966A8.189,8.189,0,0,1,59,2.917ZM39.418,21.152a1.391,1.391,0,0,1,.285.159,19.353,19.353,0,0,1,1.871,1.268A3.82,3.82,0,0,1,42.779,26.8a3.911,3.911,0,0,1-3.758,2.537,7.157,7.157,0,0,1-2.616-.6,13.625,13.625,0,0,0-2.553-.809c-.967-.174-1.57.444-1.586,1.443v.254c0,1.253,0,2.521-.016,3.774,0,.127-.127.365-.206.365-1.046.016-2.077.016-3.171.016v-.539c0-1.364.016-2.711-.032-4.075a1.226,1.226,0,0,0-1.379-1.253c-.174,0-.349.016-.507.032-1.411.174-2.807.333-4.218.507a1.357,1.357,0,0,0-1.189,1.3,1.319,1.319,0,0,0,1.205,1.284,4.688,4.688,0,0,0,.936-.048c.809-.1,1.6-.19,2.458-.3v4.249a1.32,1.32,0,0,0,1.4,1.443q3.021.024,6.041,0A1.319,1.319,0,0,0,34.994,34.9V31.347c0-.111.016-.206.016-.238.9.254,1.76.571,2.648.745a6.925,6.925,0,0,0,7.278-3.235A6.326,6.326,0,0,0,43.3,20.549a.551.551,0,0,1-.206-.666,10.546,10.546,0,0,0,.317-2.616,7.026,7.026,0,0,0-4.487-6.136.773.773,0,0,1-.492-.523A8.339,8.339,0,0,0,27.177,5.74a11.134,11.134,0,0,0-4.456,3.853,27.314,27.314,0,0,0-3.79,7.643c-1.157,3.536-2.172,7.135-3.25,10.7-.143.492-.285,1-.444,1.57-.555-.539-1.062-1.015-1.554-1.49-.936-.9-1.871-1.808-2.822-2.7a1.337,1.337,0,0,0-1.982.079,1.292,1.292,0,0,0,.1,1.839q3,2.9,6.041,5.787a1.405,1.405,0,0,0,2.394-.634c.048-.143.079-.3.127-.46.682-2.616,1.316-5.232,2.045-7.833a56.689,56.689,0,0,1,3.837-10.259,15.311,15.311,0,0,1,3.361-4.709,5.45,5.45,0,0,1,6.073-.967,5.063,5.063,0,0,1,3.235,4.662c.016.317.143.365.412.4a4.591,4.591,0,0,1,4.027,5.692,14.624,14.624,0,0,1-1.11,2.236ZM19.122,44.4h1.284a1.536,1.536,0,0,1,1.554,1.126c.016.048.032.143.079.143a1.564,1.564,0,0,0,.587.127c.1,0,.238-.222.238-.333,0-1-.032-2-.063-3,0-.27-.159-.365-.412-.4-.492-.032-.571.333-.618.666a.826.826,0,0,1-.825.761c-.539.048-1.078.063-1.617.063a.351.351,0,0,1-.238-.254c-.016-.856,0-1.712,0-2.569,0-.3.159-.428.46-.428a6.956,6.956,0,0,0,1.284-.032,3.894,3.894,0,0,1,3.25,1.078,1.787,1.787,0,0,0,.571.349.656.656,0,0,0,.507-.111c.063-.048.032-.3-.016-.428-.143-.365-.317-.7-.476-1.046a.97.97,0,0,0-.983-.634c-2.315,0-4.63.016-6.945.016-.4,0-.809-.032-1.205,0a.485.485,0,0,0-.349.349c0,.127.19.317.333.381a1.8,1.8,0,0,0,.587.032c.761.032.84.111.84.856,0,1.712.032,3.425,0,5.137-.016,1.157.285,1.221-1.221,1.268-.285,0-.571.048-.555.428s.3.349.555.349h3.853c.4,0,.809.016,1.205-.016.127-.016.333-.206.333-.3a.594.594,0,0,0-.285-.4c-.111-.079-.3-.048-.46-.048a6.037,6.037,0,0,1-.935-.079c-.127-.032-.317-.206-.317-.317-.016-.872,0-1.76,0-2.743Zm11.924-5.058a8.459,8.459,0,0,0-3.314.65,1.523,1.523,0,0,0-.285,2.807,18.4,18.4,0,0,0,1.966,1.11,26.048,26.048,0,0,1,2.569,1.522c.967.7.492,1.712-.428,1.966a5.722,5.722,0,0,1-1.649.174,2.669,2.669,0,0,1-2.553-1.76c-.159-.412-.428-.4-.745-.317-.365.1-.333.381-.285.65.1.444.222.888.317,1.332a.716.716,0,0,0,.7.634c1.268.1,2.521.222,3.79.238a4.7,4.7,0,0,0,2.458-.666c1.459-.872,1.57-2.252.222-3.266a13.008,13.008,0,0,0-1.871-1.126c-.825-.444-1.665-.809-2.489-1.237a.864.864,0,0,1-.571-.872.908.908,0,0,1,.777-.761,7.183,7.183,0,0,1,1.649-.159,1.644,1.644,0,0,1,1.617,1.3c.111.4.317.4.634.349a.465.465,0,0,0,.46-.587c-.032-.333-.079-.682-.1-1.031a.626.626,0,0,0-.571-.634c-.745-.111-1.522-.206-2.3-.317Zm14.3,8.134c-.333-.571-.428-.6-1-.4a5.518,5.518,0,0,1-4.614-.111,3.531,3.531,0,0,1-1.887-3.488,3.02,3.02,0,0,1,1.95-2.822,5.486,5.486,0,0,1,2.854-.4A1.564,1.564,0,0,1,44.206,41.5c.048.238.127.4.412.349.27-.048.507-.111.492-.46V40.353c0-.65-.1-.793-.761-.825a29.256,29.256,0,0,0-3.124-.063,6.938,6.938,0,0,0-3.108.872,4.129,4.129,0,0,0-2.474,3.457A3.948,3.948,0,0,0,37.9,47.6a7.873,7.873,0,0,0,5.375.65,5.681,5.681,0,0,0,2.077-.777ZM43.6,8.245a1.958,1.958,0,1,0-1.982,1.95A1.942,1.942,0,0,0,43.6,8.245ZM16.791,64.708a1.314,1.314,0,0,0,.317-.032,2.071,2.071,0,0,0,.523-.19,1.079,1.079,0,0,0,.571-1.078.967.967,0,0,0-.714-.872c-.4-.143-.825-.238-1.237-.365-.317-.111-.381-.365-.174-.555a.874.874,0,0,1,1.253.254c.127.412.4.254.6.19.063-.016.111-.317.079-.46a1.24,1.24,0,0,0-1.237-.825,1.358,1.358,0,0,0-1.411.618.959.959,0,0,0,.381,1.332,6.974,6.974,0,0,0,.809.285c.222.079.476.127.682.222a.344.344,0,0,1,.063.618c-.365.3-1.379.19-1.459-.365-.063-.381-.349-.317-.539-.238-.1.048-.159.317-.127.476.159.65.729.983,1.617.983Zm21.9-2.125a1.046,1.046,0,0,0-.032-1.443,1.288,1.288,0,0,0-1.617-.048c-.428.349-.476.856-.111,1.49-.523.7-.523,1.348.016,1.823a1.418,1.418,0,0,0,1.839-.048,1.232,1.232,0,0,0-.1-1.776Zm-8.515-.555c.016-.048.032-.079.016-.1a.373.373,0,0,0-.032-.127,1.417,1.417,0,0,0-1.189-.983,1.7,1.7,0,0,0-1.744.666,2.388,2.388,0,0,0,.19,2.791A1.851,1.851,0,0,0,29.3,64.6a1.488,1.488,0,0,0,.951-1.253c-.381-.19-.65-.27-.856.238a.9.9,0,0,1-1.554.1,1.9,1.9,0,0,1,0-1.839.919.919,0,0,1,1.49,0c.27.476.523.317.84.19ZM22.024,62a3.515,3.515,0,0,0-.285-.6,1.73,1.73,0,0,0-2.886.381,2.29,2.29,0,0,0,.174,2.252,1.622,1.622,0,0,0,1.744.65,1.481,1.481,0,0,0,1.221-1.062c.079-.206.048-.333-.174-.381-.143-.032-.27-.063-.428-.1a3.493,3.493,0,0,1-.143.333.818.818,0,0,1-.825.555.866.866,0,0,1-.856-.523,1.765,1.765,0,0,1,.048-1.617.907.907,0,0,1,1.538-.079c.222.492.476.365.872.19Zm20.9-6.786-.1.111a1.623,1.623,0,0,0,.206.507,1.429,1.429,0,0,0,1.506.3.966.966,0,0,0,.825-.92c.048-.936.032-1.887.048-2.822,0-.285-.238-.365-.349-.254-.254.222-.412.063-.618-.016a1.355,1.355,0,0,0-.507-.063,1.185,1.185,0,0,0-1.094.872,1.7,1.7,0,0,0,.4,1.823,1.215,1.215,0,0,0,1.443.111c.048-.016.1-.032.159-.048.032.381,0,.714-.381.84a.807.807,0,0,1-1.031-.254,1.885,1.885,0,0,0-.507-.19ZM16.411,54.1h-.1c-.159-.539-.333-1.062-.46-1.6-.1-.365-.285-.46-.65-.317a2.462,2.462,0,0,0,.063.333c.238.729.476,1.459.7,2.2.063.206.143.349.412.349s.317-.159.381-.365c.143-.507.285-1.031.428-1.538.238.539.365,1.078.539,1.6.048.127.222.3.333.285a.487.487,0,0,0,.381-.27c.174-.428.317-.888.46-1.332.127-.412.27-.825.4-1.237-.381-.143-.555-.032-.65.3-.143.539-.333,1.062-.507,1.586a10.782,10.782,0,0,1-.507-1.586c-.048-.19-.1-.381-.365-.381s-.333.159-.4.349c-.143.539-.3,1.078-.46,1.617Zm3.028-1.9c.27.84.523,1.649.777,2.474.063.206.111.4.412.4s.333-.19.4-.4c.143-.523.285-1.031.428-1.554.222.539.349,1.078.523,1.6a.6.6,0,0,0,.349.333c.238.079.333-.111.412-.317.238-.745.492-1.49.745-2.236a1.983,1.983,0,0,0,.048-.3c-.381-.143-.523,0-.618.317-.143.523-.333,1.046-.492,1.57a11.831,11.831,0,0,1-.507-1.554c-.063-.222-.1-.4-.4-.4-.317,0-.333.206-.4.412-.159.555-.317,1.094-.492,1.744-.19-.65-.381-1.205-.507-1.76-.1-.4-.285-.476-.682-.333Zm7.23,1.887h-.1l-.428-1.57c-.063-.206-.1-.412-.4-.4-.3,0-.333.206-.381.412-.143.523-.3,1.062-.444,1.586a8.914,8.914,0,0,1-.539-1.586c-.1-.381-.285-.492-.65-.333a1.712,1.712,0,0,0,.048.3c.238.729.476,1.459.7,2.2.063.222.127.381.428.381.285,0,.317-.19.365-.381.143-.523.3-1.046.444-1.57a11.016,11.016,0,0,1,.46,1.459c.063.222.048.492.412.492s.365-.27.428-.492l.571-1.712c.079-.222.127-.46.206-.682-.381-.159-.539-.032-.634.3-.143.523-.317,1.046-.492,1.586Zm16.443,8.087a3.96,3.96,0,0,1,.127-.4A.574.574,0,0,1,44,61.521c.285.159.4.428.19.682-.27.365-.634.65-.92.983a7.62,7.62,0,0,0-.825,1.062c-.143.238-.048.428.3.412.634-.016,1.253-.016,1.887,0,.27,0,.381-.079.381-.365s-.143-.333-.381-.333c-.365.016-.729,0-1.094,0a.294.294,0,0,1-.032-.111,4.89,4.89,0,0,0,.428-.381,8.719,8.719,0,0,0,.888-.983,1.075,1.075,0,0,0-.127-1.316,1.445,1.445,0,0,0-1.554-.238,1.032,1.032,0,0,0-.618,1.142c.19.048.381.063.587.1Zm4.392.935V61.22c0-.127-.1-.333-.143-.333a.663.663,0,0,0-.492.127,2.5,2.5,0,0,0-.381.507c-.365.507-.745,1.015-1.078,1.538a1,1,0,0,0-.079.65c0,.048.285.1.46.1.333.016.666,0,.9,0,.3.285-.174.825.46.856.7.016.19-.6.46-.825.1-.016.222-.032.349-.063v-.587c-.174-.032-.3-.048-.46-.079Zm-32.79-1.6c-.048-.3.19-.65-.3-.666-.682-.016-1.364-.016-2.061.016a.422.422,0,0,0-.285.3c-.016,1.062,0,2.109-.016,3.171,0,.27.111.333.365.333.238,0,.381-.063.365-.333-.016-.317.016-.634,0-.936-.016-.254.079-.365.349-.349.349.016.682,0,1.031,0,.254,0,.317-.111.317-.333s-.063-.349-.317-.333c-.317.016-.634-.016-.936,0-.349.032-.444-.111-.428-.444,0-.317.1-.428.412-.412.476.016.967-.016,1.506-.016Zm22.991-7.928a1.358,1.358,0,0,0,1.4,1.538,1.535,1.535,0,1,0-1.4-1.538Zm3.361,7.991a2.776,2.776,0,0,0-.222.381c-.27.745-.555,1.49-.809,2.236-.063.174-.127.444.238.476.285.016.46-.048.476-.381a2.221,2.221,0,0,1,.174-.793c.3-.634.666-1.253.983-1.887a1.265,1.265,0,0,0,.127-.587c0-.048-.285-.111-.444-.127-.587-.016-1.173,0-1.76,0-.238,0-.317.1-.333.333,0,.238.063.381.333.365.4-.016.793-.016,1.237-.016Zm-7.9-8.737c-.222-.238-.365-.539-.587-.6a2.991,2.991,0,0,0-1.126-.1.781.781,0,0,0-.063,1.538c.333.111.666.174.983.3a.358.358,0,0,1,.206.27.452.452,0,0,1-.19.3.8.8,0,0,1-1.062-.222c-.174-.333-.381-.254-.618-.143a1.27,1.27,0,0,0,1.871.809.846.846,0,0,0,.6-.84.765.765,0,0,0-.65-.745c-.317-.1-.634-.174-.935-.285a.5.5,0,0,1-.254-.254c-.016-.048.063-.174.127-.238a.783.783,0,0,1,.936.1c.159.3.349.285.761.111Zm2.965,1.205c-.3-.111-.476-.1-.634.222a.851.851,0,0,1-.6.349c-.222-.016-.587-.206-.634-.381a3.5,3.5,0,0,1,0-1.284c.016-.143.285-.317.476-.381a.654.654,0,0,1,.793.333c.063.111.3.1.46.143,0-.143.063-.333,0-.4a2.022,2.022,0,0,0-.7-.523,1.326,1.326,0,0,0-1.49.46,2.059,2.059,0,0,0-.032,1.966,1.361,1.361,0,0,0,1.475.539,1.133,1.133,0,0,0,.888-1.046Zm-1.348,8.055v2.156c0,.254.016.428.365.428s.349-.206.349-.444v-3.5a5.446,5.446,0,0,0-.634.333,6.354,6.354,0,0,1-.618.523c-.381.206-.365.476-.254.84.254-.111.492-.206.793-.333Zm-3.774.317c.27-.1.523-.19.825-.317V64.28c0,.27.1.381.381.381s.333-.143.317-.381c-.016-.539,0-1.078,0-1.633V60.7c-.285.159-.46.238-.618.349a5.249,5.249,0,0,1-.571.492c-.381.206-.444.444-.333.872Zm-1.142-9.783c.032.016.079.048.111.063.159-.127.317-.238.476-.349-.174-.111-.333-.206-.539-.333-.032-.4,0-.444.444-.523.111-.016.206-.143.27-.238a.326.326,0,0,0-.127-.222.834.834,0,0,0-1.173.682,2.419,2.419,0,0,0-.016.285,3.3,3.3,0,0,0-.4.333c-.016.032.048.206.079.206.476.032.317.381.333.634.016.492,0,.967,0,1.459,0,.222-.016.444.317.428s.254-.254.254-.444c-.032-.65-.032-1.316-.032-1.982Zm-7.246,9.26a.985.985,0,0,0,.983.967,1,1,0,0,0,1-1.015.985.985,0,0,0-.983-.967A1.019,1.019,0,0,0,22.626,61.886Zm18.44-9.815c0,.967-.016,1.808.016,2.648a.45.45,0,0,0,.27.317c.27.063.285-.143.285-.349,0-.412-.016-.825,0-1.237.032-.634.143-.729.777-.793a.444.444,0,0,0,.254-.254c.016-.063-.111-.254-.159-.254-.285,0-.587.048-.967.079-.063-.016-.222-.079-.476-.159Zm-13,3.028c.063,0,.127.016.19.016a1.881,1.881,0,0,0,.254-.365c.048-.19-.016-.333-.254-.317-.19,0-.4,0-.365.27a1.262,1.262,0,0,0,.174.4Zm9.006-.714h-.19a1.769,1.769,0,0,0-.206.381c-.048.222.063.3.285.3s.381-.063.333-.3a1.327,1.327,0,0,0-.222-.381Z" fill="#0c0c0c"/>
      <path id="Pfad_2093" data-name="Pfad 2093" d="M310.528,519.839c.7.016.92-.27.714-.824-.27-.729-.555-1.459-.856-2.267-.127.222-.174.349-.238.476-.682,0-.793.1-.793.793v1.268c-.507.143-.555.111-.555-.317V516.7h1.348c.063,0,.111.032.159.032a.849.849,0,0,1,.9.587,5.629,5.629,0,0,0,.476,1.062c.174-.444.365-.888.507-1.348.111-.349.3-.444.682-.317-.063.19-.127.381-.19.555-.285.761-.555,1.522-.856,2.283a1.913,1.913,0,0,1-.46.7.785.785,0,0,1-.634.079c-.1-.016-.127-.286-.206-.492Z" transform="translate(-259.837 -434.74)" fill="#0c0c0c"/>
      <path id="Pfad_2094" data-name="Pfad 2094" d="M166.155,483.653c-.539.1-.555.1-.555-.4v-2.3c.634.317,1.3-.317,1.887.222.048.048.206-.016.3-.063.793-.428,1.4-.1,1.427.793.016.444-.016.888.016,1.332.016.381-.111.539-.571.412v-1.189c0-.174,0-.349-.016-.507-.016-.254-.048-.492-.4-.492a.5.5,0,0,0-.539.492c-.016.476,0,.935-.032,1.411a.392.392,0,0,1-.222.317c-.19.063-.349,0-.349-.27.016-.476.016-.936,0-1.411,0-.238,0-.507-.349-.539a.5.5,0,0,0-.587.492c-.032.476-.016.967-.032,1.459a.563.563,0,0,1,.016.238Z" transform="translate(-139.343 -404.674)" fill="#0c0c0c"/>
      <path id="Pfad_2095" data-name="Pfad 2095" d="M86.8,516.566a12.672,12.672,0,0,1,1.3-.079,1.359,1.359,0,0,1,1,1.808c-.222.793-.714,1.062-1.76.888v.587c0,.476-.016.492-.539.4v-3.6Zm.507,1.4a1.314,1.314,0,0,0,.032.317c.079.285.254.539.555.476a1.175,1.175,0,0,0,.571-.412.691.691,0,0,0,.079-.412c.032-.6-.206-1-.618-1-.365.016-.618.381-.618,1.031Z" transform="translate(-73.037 -434.591)" fill="#0c0c0c"/>
      <path id="Pfad_2096" data-name="Pfad 2096" d="M167.716,510.6h.507c.016.349.032.666.048,1.031.143-.032.254-.079.349-.1a2.165,2.165,0,0,1,.555,0,1.43,1.43,0,0,1,.793,1.871,1.159,1.159,0,0,1-1.49.824,3.136,3.136,0,0,0-.777-.016l.016-3.615Zm.507,2.315c0,.555.238.9.618.92.365.016.6-.3.634-.825V512.8c-.032-.507-.254-.793-.6-.793s-.587.285-.634.777a.447.447,0,0,0-.016.127Z" transform="translate(-141.11 -429.639)" fill="#0c0c0c"/>
      <path id="Pfad_2097" data-name="Pfad 2097" d="M192.082,482.156a.694.694,0,0,1,.523-.714,3.019,3.019,0,0,1,1-.1c.476.032.682.254.714.745.032.333.016.65.016.983.016.317.048.618.063.951-.016,0-.063.048-.1.032a2.655,2.655,0,0,0-1.364.048.805.805,0,0,1-.967-.7.839.839,0,0,1,.745-.9c.27-.063.539-.079.809-.143.079-.016.206-.1.222-.159a.362.362,0,0,0-.111-.3.7.7,0,0,0-.92.1c-.174.349-.365.27-.634.159Zm1.681.65a6.539,6.539,0,0,0-.9.174.4.4,0,0,0-.238.333.453.453,0,0,0,.3.285c.428.143.777-.174.84-.793Z" transform="translate(-161.528 -405.017)" fill="#0c0c0c"/>
      <path id="Pfad_2098" data-name="Pfad 2098" d="M264.708,518.286c.016.634-.7,1.031-1.4.92a1.347,1.347,0,0,1-1.031-1.665,1.213,1.213,0,0,1,1.443-1.11c.682.079,1.094.682.983,1.554H262.9a.642.642,0,0,0,.444.714.576.576,0,0,0,.745-.27c.174-.3.4-.206.618-.143Zm-.539-.84a.571.571,0,0,0-.634-.539c-.333,0-.523.159-.571.539Z" transform="translate(-220.676 -434.534)" fill="#0c0c0c"/>
      <path id="Pfad_2099" data-name="Pfad 2099" d="M120.615,478.831c-.46.143-.6,0-.571-.4s0-.793,0-1.205c0-.3-.048-.587-.444-.587a.54.54,0,0,0-.618.571c-.016.428-.016.856-.016,1.284,0,.222,0,.4-.3.4s-.27-.19-.27-.381V475.6c0-.206,0-.4.3-.4.285,0,.27.19.27.381v.7c.19-.048.333-.079.476-.111a.889.889,0,0,1,1.173.888c.016.587,0,1.173,0,1.776Z" transform="translate(-99.621 -399.852)" fill="#0c0c0c"/>
      <path id="Pfad_2100" data-name="Pfad 2100" d="M196.028,517.98h-1.839a.689.689,0,0,0,.476.7.557.557,0,0,0,.729-.27c.159-.3.381-.206.618-.143a1.112,1.112,0,0,1-1.4.92c-.729-.111-1.126-.761-1.015-1.665a1.2,1.2,0,0,1,1.443-1.11c.7.1,1.094.682.983,1.57Zm-1.776-.539h1.205a.568.568,0,0,0-.618-.539.511.511,0,0,0-.587.539Z" transform="translate(-162.889 -434.514)" fill="#0c0c0c"/>
      <path id="Pfad_2101" data-name="Pfad 2101" d="M52.7,517.986H50.874a.654.654,0,0,0,.428.714.563.563,0,0,0,.745-.238c.174-.317.4-.222.65-.159a1.144,1.144,0,0,1-1.459.9c-.714-.143-1.094-.793-.967-1.7a1.227,1.227,0,0,1,1.443-1.078c.666.1,1.062.666.983,1.554Zm-1.808-.539h1.237a.563.563,0,0,0-.634-.539.578.578,0,0,0-.6.539Z" transform="translate(-42.281 -434.536)" fill="#0c0c0c"/>
      <path id="Pfad_2102" data-name="Pfad 2102" d="M138.711,482.654H136.9a.573.573,0,0,0,.412.7.544.544,0,0,0,.714-.19c.174-.3.381-.285.65-.19-.032.6-.507.951-1.237.92-.777-.032-1.237-.618-1.173-1.522a1.247,1.247,0,0,1,1.316-1.284c.745.048,1.189.618,1.126,1.57Zm-1.823-.523h1.205c0-.4-.238-.523-.539-.555a.592.592,0,0,0-.666.555Z" transform="translate(-114.657 -404.801)" fill="#0c0c0c"/>
      <path id="Pfad_2103" data-name="Pfad 2103" d="M225.562,478.931c-.428.111-.714.063-.888-.333a2.968,2.968,0,0,0-.428-.634c-.048-.079-.143-.111-.222-.174a.8.8,0,0,0-.159.27,1.6,1.6,0,0,0-.016.476c.032.4-.127.523-.555.381V475.7c0-.174-.032-.38.254-.4.317,0,.285.206.285.412v1.427c.571-.3.809-1.078,1.617-.793l-.523.523c-.539.523-.507.381-.1,1,.238.333.476.682.729,1.062Z" transform="translate(-187.888 -399.937)" fill="#0c0c0c"/>
      <path id="Pfad_2104" data-name="Pfad 2104" d="M233.284,516.4a1.41,1.41,0,0,1-.048,2.806c-.777,0-1.237-.555-1.237-1.427.016-.888.476-1.379,1.284-1.379Zm-.714,1.268c0,.666.222,1.031.618,1.015a.891.891,0,0,0,.618-.333,1.023,1.023,0,0,0-.048-1.205,1.061,1.061,0,0,0-.714-.206c-.127,0-.285.174-.365.317a1.61,1.61,0,0,0-.111.412Z" transform="translate(-195.214 -434.52)" fill="#0c0c0c"/>
      <path id="Pfad_2105" data-name="Pfad 2105" d="M143.686,517.147a3.821,3.821,0,0,0-.523-.238,5.171,5.171,0,0,0-.714-.143c-.063,0-.174.127-.174.206a.313.313,0,0,0,.174.206c.254.1.523.159.777.238.381.127.682.317.65.777a.889.889,0,0,1-.761.809c-.666.143-1.522-.159-1.443-.888.222-.064.428-.174.587.158a.564.564,0,0,0,.444.254,1.8,1.8,0,0,0,.571-.254,3.073,3.073,0,0,0-.428-.365,4.489,4.489,0,0,0-.65-.222.694.694,0,0,1-.507-.666.733.733,0,0,1,.523-.713.979.979,0,0,1,1.475.84Z" transform="translate(-119.205 -434.348)" fill="#0c0c0c"/>
      <path id="Pfad_2106" data-name="Pfad 2106" d="M280.8,518.326c.317-.1.507-.111.666.19a.764.764,0,0,0,.587.222c.143,0,.27-.19.412-.285a2.067,2.067,0,0,0-.349-.3c-.285-.127-.6-.174-.872-.317a.656.656,0,0,1-.238-.983,1.124,1.124,0,0,1,1.237-.365.8.8,0,0,1,.729.761c-.222.079-.4.174-.618-.1-.111-.143-.428-.143-.65-.174a.321.321,0,0,0-.222.206.366.366,0,0,0,.19.222c.285.111.571.174.856.27.317.1.571.317.523.634a1.11,1.11,0,0,1-1.728.809.93.93,0,0,1-.523-.793Z" transform="translate(-236.276 -434.56)" fill="#0c0c0c"/>
      <path id="Pfad_2107" data-name="Pfad 2107" d="M70.891,517.217a3.252,3.252,0,0,0-.523-.269,2.286,2.286,0,0,0-.634-.143.321.321,0,0,0-.222.206c-.016.063.1.206.19.238.285.111.571.174.856.27a.674.674,0,0,1,.539.587.817.817,0,0,1-.381.809c-.6.412-1.871.174-1.823-.729.238-.079.412-.19.618.159.1.159.428.222.65.238.111.016.238-.19.349-.285-.111-.1-.19-.222-.317-.27-.27-.111-.587-.159-.84-.285a.7.7,0,0,1-.032-1.268.967.967,0,0,1,1.57.745Z" transform="translate(-57.968 -434.418)" fill="#0c0c0c"/>
      <path id="Pfad_2108" data-name="Pfad 2108" d="M104.3,517.762a1.226,1.226,0,0,1,1.3-1.364,1.246,1.246,0,0,1,1.237,1.4c-.016.888-.507,1.427-1.3,1.411a1.246,1.246,0,0,1-1.237-1.443Zm.492-.016c.032.016.048.032.079.048,0,.079.016.174.016.254a.666.666,0,0,0,.65.666.627.627,0,0,0,.666-.6,2.2,2.2,0,0,0-.032-.793A.611.611,0,0,0,105.2,517a3.356,3.356,0,0,0-.412.745Z" transform="translate(-87.76 -434.518)" fill="#0c0c0c"/>
      <path id="Pfad_2109" data-name="Pfad 2109" d="M251.619,482.452a1.214,1.214,0,0,1-1.3,1.348c-.777-.016-1.237-.555-1.221-1.443a1.27,1.27,0,1,1,2.521.1Zm-.571,0a1.83,1.83,0,0,0-.016-.333.647.647,0,0,0-.65-.618.631.631,0,0,0-.682.618,1.293,1.293,0,0,0,.048.745,1.067,1.067,0,0,0,.6.444c.285.079.507-.143.6-.428a1.94,1.94,0,0,0,.1-.428Z" transform="translate(-209.601 -404.726)" fill="#0c0c0c"/>
      <path id="Pfad_2110" data-name="Pfad 2110" d="M126.2,518.968h-.571c0-.491.016-.967,0-1.459-.016-.333.063-.729-.46-.761-.412-.016-.618.254-.618.793v1.348c-.507.159-.555.127-.555-.333,0-.65.016-1.316,0-1.966,0-.3.159-.317.381-.3a1.821,1.821,0,0,0,.587-.016.918.918,0,0,1,1.253.951c-.016.587-.016,1.157-.016,1.744Z" transform="translate(-104.339 -434.376)" fill="#0c0c0c"/>
      <path id="Pfad_2111" data-name="Pfad 2111" d="M98.019,478.852c0-.872-.016-1.744.016-2.584.016-.412-.143-.539-.507-.492a.966.966,0,0,1-.428-.016c-.1-.032-.222-.159-.206-.238a.4.4,0,0,1,.206-.285c.825-.016,1.649-.016,2.489,0,.079,0,.19.174.19.285,0,.079-.127.159-.206.238-.016.016-.048,0-.079,0a.818.818,0,0,0-.856.92v1.76c-.016.507-.032.523-.618.412Z" transform="translate(-81.528 -399.874)" fill="#0c0c0c"/>
      <path id="Pfad_2112" data-name="Pfad 2112" d="M268.6,475c-.016.159-.048.27-.063.428a1.118,1.118,0,0,0-.333.016c-.1.048-.222.143-.238.238-.016.079.111.174.19.254.079.1.174.159.27.254a2.068,2.068,0,0,0-.285.238.7.7,0,0,0-.19.349c-.016.507,0,1.031-.016,1.538a.429.429,0,0,1-.254.317c-.254.079-.3-.111-.3-.317,0-.507.016-1.031,0-1.538,0-.127-.159-.238-.238-.365a.5.5,0,0,1-.143-.27c0-.063.1-.143.159-.206.079-.1.206-.174.222-.285.111-.682.46-.888,1.221-.65Z" transform="translate(-224.665 -399.601)" fill="#0c0c0c"/>
      <path id="Pfad_2113" data-name="Pfad 2113" d="M222.7,511.032c.3.016.555.048.4.46-.428-.032-.476.238-.46.587.016.539,0,1.078,0,1.6-.539.111-.571.1-.571-.38v-1.332c0-.206.079-.46-.27-.476a2.1,2.1,0,0,1,.032-.444c.048-.127.222-.238.238-.365.111-.523.365-.745.9-.666.111.016.222.159.317.238-.111.1-.19.27-.317.285-.27.048-.349.174-.27.492Z" transform="translate(-186.631 -429.136)" fill="#0c0c0c"/>
      <path id="Pfad_2114" data-name="Pfad 2114" d="M298.133,510.9v.856c.238.079.555.079.365.476-.333,0-.412.206-.381.523a6.874,6.874,0,0,1,0,.809c0,.222-.016.412.3.46.1.016.159.254.238.4-.761.254-1.094.032-1.11-.682v-.983c0-.206.079-.444-.222-.523-.032-.016-.063-.1-.079-.143s-.016-.159.016-.159c.4-.143.174-.6.412-.793a2.975,2.975,0,0,1,.46-.238Z" transform="translate(-250.105 -429.892)" fill="#0c0c0c"/>
      <path id="Pfad_2115" data-name="Pfad 2115" d="M186.4,510.7h.507v3.615H186.4V510.7Z" transform="translate(-156.844 -429.724)" fill="#0c0c0c"/>
      <path id="Pfad_2116" data-name="Pfad 2116" d="M252.864,517.087c-.666-.047-.777.064-.793.729-.016.444,0,.872,0,1.38-.19,0-.349.016-.571.032,0-.856,0-1.681.016-2.505,0-.063.143-.174.222-.19a7.162,7.162,0,0,1,.825-.032C252.975,516.5,253.054,516.627,252.864,517.087Z" transform="translate(-211.622 -434.604)" fill="#0c0c0c"/>
      <path id="Pfad_2117" data-name="Pfad 2117" d="M211.7,481.7h1.538c-.1.238-.143.381-.206.523-.634-.063-.777.063-.793.682-.016.333-.016.682,0,1.031.032.412-.159.492-.539.381V481.7Z" transform="translate(-178.133 -405.322)" fill="#0c0c0c"/>
      <path id="Pfad_2118" data-name="Pfad 2118" d="M39.345,517.739c0-.349-.016-.682.016-1.031a.427.427,0,0,1,.238-.3,2.134,2.134,0,0,1,.777-.032c.159.032.412.159.428.27.032.238-.127.365-.412.317-.317-.064-.428.174-.444.444-.032.46-.032.9-.048,1.364,0,.206-.048.4-.3.333a.411.411,0,0,1-.238-.333,7.491,7.491,0,0,1-.016-1.031Z" transform="translate(-33.098 -434.479)" fill="#0c0c0c"/>
      <path id="Pfad_2119" data-name="Pfad 2119" d="M159.95,519.357h-.571v-1.3c0-.365-.016-.745.016-1.11a.381.381,0,0,1,.238-.254c.1-.016.3.111.3.174.016.825.016,1.649.016,2.489Z" transform="translate(-134.105 -434.765)" fill="#0c0c0c"/>
      <path id="Pfad_2120" data-name="Pfad 2120" d="M160.1,511.026c-.111.079-.222.238-.333.222a.407.407,0,0,1-.27-.285c-.016-.079.143-.254.238-.27.111-.016.238.111.349.159a.65.65,0,0,1,.016.174Z" transform="translate(-134.204 -429.716)" fill="#0c0c0c"/>
      <path id="Pfad_2121" data-name="Pfad 2121" d="M259.644,45.4c-.159-.238-.317-.46-.476-.714.048-.063.127-.111.143-.174a1.609,1.609,0,0,0,.127-.745c-.048-.159-.349-.317-.555-.365a5,5,0,0,0-.983-.016,1.277,1.277,0,0,1,1.792.1,1.384,1.384,0,0,1-.048,1.919Z" transform="translate(-217.007 -36.232)" fill="#3a3a1f"/>
      <path id="Pfad_2122" data-name="Pfad 2122" d="M254.365,45.7v1.887A1.224,1.224,0,0,1,254.365,45.7Z" transform="translate(-213.662 -38.454)" fill="#3a3a1f"/>
      <path id="Pfad_2123" data-name="Pfad 2123" d="M259.212,53.8c.254.317.523.634.793.951a1.3,1.3,0,0,1-1.205,0,.95.95,0,0,0,.27-.9.5.5,0,0,0,.143-.048Z" transform="translate(-217.765 -45.269)" fill="#3a3a1f"/>
      <path id="Pfad_2124" data-name="Pfad 2124" d="M235.973,397.467a.579.579,0,0,1-.6.587.6.6,0,0,1-.571-.587.555.555,0,0,1,.555-.571.563.563,0,0,1,.618.571Z" transform="translate(-197.57 -333.964)" fill="#3a3a1f"/>
      <path id="Pfad_2125" data-name="Pfad 2125" d="M236.842,388.289c-.174.1-.349.3-.507.285a.593.593,0,0,1-.4-.38c-.063-.254.143-.444.412-.412a1.711,1.711,0,0,1,.507.3.838.838,0,0,0-.016.206Z" transform="translate(-198.519 -326.292)" fill="#3a3a1f"/>
      <path id="Pfad_2126" data-name="Pfad 2126" d="M274.842,332.279a3.718,3.718,0,0,1-.507.872.666.666,0,0,1-.951-.1,1.365,1.365,0,0,1-.032-1.522.677.677,0,0,1,.951-.158,4.389,4.389,0,0,1,.539.9Z" transform="translate(-229.827 -278.718)" fill="#3a3a1f"/>
      <path id="Pfad_2127" data-name="Pfad 2127" d="M291.482,391.6v1.031H290.8C291.022,392.3,291.212,392,291.482,391.6Z" transform="translate(-244.691 -329.508)" fill="#3a3a1f"/>
      <path id="Pfad_2128" data-name="Pfad 2128" d="M243.3,332.5a3.531,3.531,0,0,1-.523.856.762.762,0,0,1-1.189-.444,1.913,1.913,0,0,1-.032-.793.779.779,0,0,1,.84-.729.842.842,0,0,1,.793.809,1.355,1.355,0,0,1,0,.254c.032,0,.063.032.111.048Z" transform="translate(-203.229 -278.841)" fill="#3a3a1f"/>
      <path id="Pfad_2129" data-name="Pfad 2129" d="M147.909,386.926c-.381-.3.27-1.221-.809-.935.063-.063.111-.127.174-.19a2.46,2.46,0,0,1,.618.285c.238.206.206.492.016.84Z" transform="translate(-123.776 -324.628)" fill="#3a3a1f"/>
    </g>
  </g>
</svg>
