<svg xmlns="http://www.w3.org/2000/svg" xmlns:xlink="http://www.w3.org/1999/xlink" width="87" height="86" viewBox="0 0 87 86">
  <defs>
    <clipPath id="clip-path">
      <rect id="Rechteck_3933" data-name="Rechteck 3933" width="89" height="86"/>
    </clipPath>
    <clipPath id="clip-logo-global-impact">
      <rect width="87" height="86"/>
    </clipPath>
  </defs>
  <g id="logo-global-impact" clip-path="url(#clip-logo-global-impact)">
    <g id="logo-un-global-impact" transform="translate(0 0.11)">
      <g id="Gruppe_3611" data-name="Gruppe 3611">
        <g id="Gruppe_3610" data-name="Gruppe 3610" clip-path="url(#clip-path)">
          <g id="Gruppe_3609" data-name="Gruppe 3609">
            <path id="Pfad_2256" data-name="Pfad 2256" d="M32.15,2.356A3.727,3.727,0,0,0,26.931,4.1c-.87,1.957-.435,3.7,1.522,4.567a3.966,3.966,0,0,0,5.219-1.74c1.087-1.74.435-3.479-1.522-4.567Zm.217,4.132c-.87,1.74-2.392,2.392-3.262,1.957-1.087-.435-1.522-1.957-.652-3.914.87-1.74,1.957-2.609,3.262-1.74,1.3.652,1.522,2.175.652,3.7Z" transform="translate(31.13 2.211)" fill="#111"/>
            <path id="Pfad_2257" data-name="Pfad 2257" d="M43.241,20.614l-6.089.435-.217,1.3h-.217a33.577,33.577,0,0,0-.217-3.7h.435l.435,1.087,6.089-.435-.217-1.522-1.522-.435v-.435l1.957-.217a61.437,61.437,0,0,1,.435,6.306l-2.175.217v-.435l1.522-.652-.217-1.522Z" transform="translate(42.871 19.615)" fill="#111"/>
            <path id="Pfad_2258" data-name="Pfad 2258" d="M36.971,19.137l1.522.217.217.435-1.74.435v-.217a7.724,7.724,0,0,1-.87-1.957c-.652-2.175.435-3.7,2.609-4.349A3.666,3.666,0,0,1,43.5,16.528a8.92,8.92,0,0,1,.217,2.392l-1.74.435-.217-.435,1.3-.87V17.4c-.652-1.957-2.175-2.827-3.914-2.175s-2.609,1.74-2.175,3.479c-.217,0-.217.217,0,.435Z" transform="translate(42.183 15.873)" fill="#111"/>
            <path id="Pfad_2259" data-name="Pfad 2259" d="M42.7,11.57l-.217-.652-7.611.435-.652-.652L34,10.917l1.3,2.175.217-.217V12l2.175-.217,1.087,1.957-1.522,1.522-.652-.652-.435.435a18.48,18.48,0,0,1,1.087,2.827l.217-.217v-.87L42.7,11.57Zm-4.567.217,2.609-.217L39,13.527l-.87-1.74Z" transform="translate(39.935 12.568)" fill="#111"/>
            <path id="Pfad_2260" data-name="Pfad 2260" d="M40.211,9.392,38.254,7l-.217.217.217.87L33.47,11.567l-.87-.435v.217s1.087,1.3,1.957,2.392l.217-.217-.217-.87,1.74-1.3.435.652c1.087,1.3,2.392,1.74,3.479.87l.652-.652a1.307,1.307,0,0,0,.217-.87,3.032,3.032,0,0,0-.87-1.957Zm-.217,1.3a.8.8,0,0,1-.217.652c-.217.217-.217.435-.435.435a.8.8,0,0,1-.652.217h-.652c-.435,0-.652-.217-.87-.652l-.217-.217,2.392-1.957.435.435a.673.673,0,0,1,.217.435s.217.435,0,.652Z" transform="translate(38.291 8.222)" fill="#111"/>
            <path id="Pfad_2261" data-name="Pfad 2261" d="M34.319,10.241l5-2.175,1.74,1.74-.217.217-1.087-.652L35.624,13.5l.435.87-.217.217-2.175-2.175.217-.217.87.217,3.262-3.479-5.436,2.392-.217-.217L34.1,5.24,31.057,9.371l.435.87-.217.217L29.1,8.936l.217-.217.87.217L34.1,4.587l-.435-.87.217-.217,1.957,1.3-1.522,5.436Z" transform="translate(34.18 4.111)" fill="#111"/>
            <path id="Pfad_2262" data-name="Pfad 2262" d="M27.49,7.525l.87-1.3.435.217-.435,1.74h-.217a6.7,6.7,0,0,1-2.175-.217,3.4,3.4,0,0,1-2.609-4.349C23.794,1.436,25.533.349,28.143,1a9.088,9.088,0,0,1,2.175.87l-.435,1.74h-.435L29.23,1.654c-.217,0-.435-.217-.652-.217-2.392-.652-3.479.435-3.914,2.175s.217,3.262,1.957,3.7c.435,0,.652,0,.87.217" transform="translate(27.308 0.956)" fill="#111"/>
            <path id="Pfad_2263" data-name="Pfad 2263" d="M19.97,6.524V.652L19.1.217V0h3.262V.217l-.87.435V6.741h1.74l.652-1.3h.435L24.1,7.393h-5V6.959l.87-.435Z" transform="translate(22.434)" fill="#111"/>
            <path id="Pfad_2264" data-name="Pfad 2264" d="M22.693,6.606l-.87-.217L18.127.3h-.435l-1.74,7.176-.652.435v.217l2.392-.652V7.259l-.87-.217.435-2.175,2.175-.435,1.087,1.957-.87.435v.217l3.044-.435ZM17.257,4.432l.435-2.609L19,4.214Z" transform="translate(17.971 0.352)" fill="#111"/>
            <path id="Pfad_2265" data-name="Pfad 2265" d="M18.911,5.626c-.435-1.087-1.3-1.3-2.827-.87,1.087-.652,1.74-1.522,1.3-2.392,0-.217-.217-.435-.435-.652s-.435-.217-.652-.435a1.745,1.745,0,0,0-1.74.217L11.3,3.017l.217.217H12.6L15,8.671l-.652.652-.217.217,2.827-1.3a6.02,6.02,0,0,0,1.74-1.087c.217-.217.217-.435.217-.87s0-.435,0-.652ZM13.692,2.582l.652-.217a1.138,1.138,0,0,1,1.74.87c0,.217.217.435.217.652a.8.8,0,0,1-.217.652c-.217.217-.217.435-.435.435s-.217.217-.435.217l-.435.217L13.692,2.582Zm3.914,4.784c-.217.435-.435.435-1.087.652l-.435.217L15,5.409l.435-.217a1.529,1.529,0,0,1,2.175.87c0,.217.217.435.217.652S17.606,7.148,17.606,7.366Z" transform="translate(13.273 1.332)" fill="#111"/>
            <path id="Pfad_2266" data-name="Pfad 2266" d="M14.874,4.659A3.129,3.129,0,0,0,10.09,3.572,3.472,3.472,0,0,0,9,8.791c1.3,1.74,3.044,2.175,4.784,1.087a3.441,3.441,0,0,0,1.087-5.219ZM13.787,9.226c-1.087.652-2.392,0-3.7-1.522-1.087-1.522-1.3-3.044,0-3.7s2.609,0,3.479,1.522c1.087,1.74,1.087,3.262.217,3.7Z" transform="translate(9.698 3.387)" fill="#111"/>
            <path id="Pfad_2267" data-name="Pfad 2267" d="M10.636,11.706,6.5,7.357l-1.087.435L5.2,7.575,7.592,5.4l.217.217-.435.87,4.349,4.349,1.3-1.3-.435-1.522.217-.217,1.3,1.522s-1.74,1.74-3.7,3.479l-.217-.217.435-.87Z" transform="translate(6.108 6.343)" fill="#111"/>
            <path id="Pfad_2268" data-name="Pfad 2268" d="M9.781,10.244l1.74,1.3a6.8,6.8,0,0,1-1.087,2.175c-1.3,1.957-3.262,2.175-5.219.87s-2.609-3.262-.87-5.436a10.891,10.891,0,0,1,1.522-1.74L6.085,7.2,7.607,8.287l-.435.652L5.65,8.5c0,.217-.217.217-.435.435-1.522,1.74-1.087,3.262.652,4.567A2.7,2.7,0,0,0,10,12.854c.217-.217.217-.217.217-.435l-1.3-1.087-.87.652-.217-.217L9.781,9.157,10,9.375l-.217.87Z" transform="translate(3.918 8.457)" fill="#111"/>
            <path id="Pfad_2269" data-name="Pfad 2269" d="M2.557,17.789l4.784,1.522.652-.652h.217c-.217.87-.435,1.522-.652,2.392H7.341v-.87L1.47,18.224a3,3,0,0,0-.652.87H.6c.217-.652.435-1.3.652-2.175l5.871-1.957-3.914-1.3-.652.652-.217-.217c.217-.87.652-1.74.87-2.392l.217.217V13l6.306,2.175-.217.435a42.75,42.75,0,0,0-6.959,2.175Z" transform="translate(0.705 13.742)" fill="#111"/>
            <path id="Pfad_2270" data-name="Pfad 2270" d="M.87,21.336l4.349.435a1.733,1.733,0,0,0,1.957-1.522,2.758,2.758,0,0,0-.217-1.3c-.217-.435-.652-.652-1.522-.652l-4.349-.435-.435.87H.435c.217-.87.217-1.957.435-2.827H1.3c0,.435.217.652.217,1.087l4.132.435c1.087,0,1.74.435,1.957,1.087a3.232,3.232,0,0,1,.435,1.957q-.326,2.609-2.609,2.609l-4.349-.435a1.649,1.649,0,0,0-.435.87H0c0-1.087.217-2.175.217-3.262H.652L.87,21.336" transform="translate(0 18.675)" fill="#111"/>
            <path id="Pfad_2271" data-name="Pfad 2271" d="M38.679,36.212c5-4.132,2.827-12.612,2.827-12.612-.652,2.609-3.479,7.611-4.349,9.133a28.764,28.764,0,0,0-1.522,5l-.435,1.74a26.169,26.169,0,0,1,3.479-3.262" transform="translate(41.344 27.72)" fill="#111"/>
            <path id="Pfad_2272" data-name="Pfad 2272" d="M53.253,38.909c-4.784-1.957-10-4.349-15.874-3.262a4.788,4.788,0,0,1-1.74.217,4.788,4.788,0,0,1-1.74-.217c-5.871-1.087-10.873,1.3-15.874,3.262-3.7,1.3-8.481,1.087-11.525-.87a12.9,12.9,0,0,0,5.871,3.7A14.039,14.039,0,0,0,24.549,40c2.827-1.522,5.436-4.349,9.133-3.262a42.845,42.845,0,0,0-10.655,6.959l1.957,1.522a29.291,29.291,0,0,1,10.438-8.046A27.034,27.034,0,0,1,45.86,45.215l1.957-1.522a39.21,39.21,0,0,0-10.655-6.959c3.7-1.087,6.306,1.74,9.133,3.262,3.262,2.175,8.263,3.262,12.178,1.74a12.9,12.9,0,0,0,5.871-3.7c-2.827,1.957-7.611,2.175-11.09.87" transform="translate(7.635 41.55)" fill="#111"/>
            <path id="Pfad_2273" data-name="Pfad 2273" d="M31.5,43.244c3.044-1.3,6.741-.87,9.568-3.044,3.044-2.392,5.871-5.871,6.306-10C45.2,35.633,39.981,36.286,36.5,39.547c-.652.652-1.3,1.087-1.957,1.74h0a11.428,11.428,0,0,0,2.392-3.044c2.175-3.262,1.3-8.046,2.827-11.743a22.277,22.277,0,0,0-3.479,6.306c-1.3,3.7-1.74,7.828-4.784,10.438" transform="translate(36.999 31.126)" fill="#111"/>
            <path id="Pfad_2274" data-name="Pfad 2274" d="M5.048,36.33c.87.87,3.044,2.609,3.262,3.044a15.977,15.977,0,0,1-.435-1.74,17.166,17.166,0,0,0-1.522-5C5.7,31.111,2.656,26.327,2,23.5c0,.217-1.957,8.7,3.044,12.83" transform="translate(1.91 27.602)" fill="#111"/>
            <path id="Pfad_2275" data-name="Pfad 2275" d="M38.265,43.312c3.914,0,9.786-1.957,12.83-7.176,0,0-2.609,3.7-12.395,3.7a51.755,51.755,0,0,0-6.959.87h-.652a4.1,4.1,0,0,1,1.74-.435,7.8,7.8,0,0,0,4.567-3.044c1.74-2.392,3.479-6.306,3.914-6.524-3.479,2.175-5.871,4.567-8.916,7.176C30,39.833,27.827,40.268,25,40.92c.217,0,.435.217.87.217,2.609,0,6.741,2.175,12.395,2.175" transform="translate(29.364 36.059)" fill="#111"/>
            <path id="Pfad_2276" data-name="Pfad 2276" d="M28.225,41.138a1.644,1.644,0,0,0,.87-.217c-2.827-.652-5-1.087-7.393-3.044-3.044-2.609-5.436-5.219-8.916-7.176.435.217,2.392,4.132,3.914,6.524a7.8,7.8,0,0,0,4.567,3.044,5.118,5.118,0,0,1,1.74.435h-.652a51.755,51.755,0,0,0-6.959-.87C5.609,39.833,3,36.136,3,36.136c2.827,5.219,8.916,7.176,12.83,7.176,5.436,0,9.786-2.175,12.395-2.175" transform="translate(3.524 36.059)" fill="#111"/>
            <path id="Pfad_2277" data-name="Pfad 2277" d="M1.1,30.2c2.175,5.436,7.393,6.089,10.873,9.351.652.652,1.3,1.087,1.957,1.74h0a11.429,11.429,0,0,1-2.392-3.044C9.581,34.981,10.233,30.2,8.711,26.5a29.364,29.364,0,0,1,3.479,6.306c1.3,3.7,1.74,7.828,4.567,10.438-2.827-1.087-6.524-.87-9.351-3.044-3.044-2.392-5.871-5.871-6.306-10Z" transform="translate(1.292 31.126)" fill="#111"/>
            <path id="Pfad_2278" data-name="Pfad 2278" d="M20.617,32.374a36.169,36.169,0,0,0,11.96-2.392,1.11,1.11,0,0,0,.87-1.087V28.46a50.245,50.245,0,0,0-2.609-11.308c-.217-.435-.217-.652-.435-.652h-.435a30.668,30.668,0,0,1-8.916,1.522h-.217a.213.213,0,0,0-.217.217l-.217.217v12.83c0,.217,0,.217.217.435h.217c-.435.652-.217.652-.217.652" transform="translate(23.961 19.38)" fill="#111"/>
            <path id="Pfad_2279" data-name="Pfad 2279" d="M15.152,21.69c-.217.435,0,.435,0,.435l.217.217a30.5,30.5,0,0,0,8.916,1.3.769.769,0,0,0,.87-.87c0-3.914.217-7.828.435-11.743a21.425,21.425,0,0,1-3.7-.435,37.042,37.042,0,0,0-6.741,11.09Z" transform="translate(17.684 12.45)" fill="#111"/>
            <path id="Pfad_2280" data-name="Pfad 2280" d="M26.665,18.992v-.217a.213.213,0,0,0-.217-.217l-.217-.217h-.217a33.876,33.876,0,0,1-9.133-1.74h-.217a.213.213,0,0,0-.217.217A46.593,46.593,0,0,0,13.4,29.865c0,.217,0,.435.217.435a39.931,39.931,0,0,0,12.395,1.957,1.074,1.074,0,0,0,.652-.217c.217-.217.217-.217.217-.87-.217-3.262-.217-12.178-.217-12.178Z" transform="translate(15.739 19.498)" fill="#111"/>
            <path id="Pfad_2281" data-name="Pfad 2281" d="M27.14,32.519a12.329,12.329,0,0,1-1.74,2.827A30.034,30.034,0,0,0,34.968,27.3a30.2,30.2,0,0,1-6.741,3.914,2.227,2.227,0,0,0-1.087,1.3" transform="translate(29.834 32.065)" fill="#111"/>
            <path id="Pfad_2282" data-name="Pfad 2282" d="M31.935,26.851a45.779,45.779,0,0,1-.435,5.436,23.11,23.11,0,0,0,2.827-10.873,12.041,12.041,0,0,0-.435-3.914,9.767,9.767,0,0,1-1.522,3.914,4.128,4.128,0,0,0-.652,1.957c.217,1.957.217,3.479.217,3.479" transform="translate(36.999 20.555)" fill="#111"/>
            <path id="Pfad_2283" data-name="Pfad 2283" d="M33.3,18a5.437,5.437,0,0,0,0-4.132,8.46,8.46,0,0,0-1.957-2.392A35.681,35.681,0,0,0,25.035,8a3.091,3.091,0,0,1,.435,1.3,3.515,3.515,0,0,1-.87,2.175A33.121,33.121,0,0,1,32.646,18s.435.435.652.435c-.217,0,0-.435,0-.435Z" transform="translate(28.894 9.396)" fill="#111"/>
            <path id="Pfad_2284" data-name="Pfad 2284" d="M19.36,40.488A47.316,47.316,0,0,1,22.4,27.441v-.217c0-.217,0-.217-.217-.217A14.985,14.985,0,0,1,16.1,22.439h.217a19.325,19.325,0,0,0,6.306,3.7h.217c.217,0,.217,0,.435-.435a43.266,43.266,0,0,1,6.741-10.873c-2.175-.435-4.349-1.74-5-3.044v-.217h.217c2.392,2.609,9.568,2.392,9.568,2.392,3.044,0,9.133-1.087,9.133-3.479C43.933,8.3,40.671,7,34.8,7,16.968,7,7.4,22.222,7.4,34.4c0,14.57,12.612,27.4,26.965,27.4,0-.217-.217-3.479-.217-3.479,0-.435,0-.435-.435-.435,0,0-6.306-.435-8.481-1.522h0a52.9,52.9,0,0,0,8.263.652h.435V56.58c0-.435-.217-10.438-.217-10.438,0-.652-.217-.87-.87-.87a39.4,39.4,0,0,1-12.395-2.609H20.23v.217a42.78,42.78,0,0,0,.217,9.133H20.23a32.645,32.645,0,0,1-1.087-8.046v-1.3c0-.217,0-.217-.217-.435l-.217-.217a35.757,35.757,0,0,1-4.784-3.044h0a32.736,32.736,0,0,0,4.784,2.392h.217c.217-.435.217-.652.435-.87" transform="translate(8.692 8.222)" fill="#111"/>
            <path id="Pfad_2285" data-name="Pfad 2285" d="M33.767,26.839a12.077,12.077,0,0,0,1.74-5.436v-.435A20.311,20.311,0,0,0,30.07,11.4v.87a8.726,8.726,0,0,1-.652,3.262,1.307,1.307,0,0,0-.217.87.8.8,0,0,0,.217.652c0-.217,2.827,3.479,4.349,9.786" transform="translate(34.297 13.39)" fill="#111"/>
            <path id="Pfad_2286" data-name="Pfad 2286" d="M35.281,21h0a24.312,24.312,0,0,1-6.306,4.132c-.87.435-.87.652-.87,1.522a34.361,34.361,0,0,1-1.3,10.22s0,.217.217,0,4.132-1.957,6.741-4.567a6.627,6.627,0,0,0,1.74-3.479A28.665,28.665,0,0,0,35.281,21" transform="translate(31.478 24.666)" fill="#111"/>
            <path id="Pfad_2287" data-name="Pfad 2287" d="M32.395,29.6h-.652a39.3,39.3,0,0,1-11.09,1.74c-.435,0-.435,0-.435.435L20,35.254a24.294,24.294,0,0,0,10.438-2.175,25.89,25.89,0,0,0,1.957-3.262s0-.217,0-.217" transform="translate(23.491 34.767)" fill="#111"/>
            <path id="Pfad_2288" data-name="Pfad 2288" d="M29.451,21.908a.759.759,0,0,0,.435-.217v-.652A60.307,60.307,0,0,0,24.232,10.6c-1.3.217-2.827.217-4.132.435.217,3.914.217,7.828.217,11.743,0,.435,0,.435.217.652.217,0,.217.217.435,0a21.781,21.781,0,0,0,8.481-1.522" transform="translate(23.609 12.45)" fill="#111"/>
            <path id="Pfad_2289" data-name="Pfad 2289" d="M29.676,21.525A19.709,19.709,0,0,0,33.808,18.7l.217-.217v-.217c0-.217-.217-.435-.217-.87A31.662,31.662,0,0,0,25.979,10,9.608,9.608,0,0,1,22.5,11.3a57.771,57.771,0,0,1,6.306,9.786c.217.435.217.652.435.652a.759.759,0,0,1,.435-.217" transform="translate(26.428 11.746)" fill="#111"/>
            <path id="Pfad_2290" data-name="Pfad 2290" d="M34.017,24.522s0-.652-.217-.87-.652,0-.652,0a44.638,44.638,0,0,1-11.96,2.175c-.87,0-.87.217-.87.87,0,3.7,0,7.176-.217,10.22v.435c0,.217.435,0,.435,0a38.057,38.057,0,0,0,11.96-2.609,1.531,1.531,0,0,0,.87-1.087,43.164,43.164,0,0,0,.652-9.133" transform="translate(23.609 27.667)" fill="#111"/>
            <path id="Pfad_2291" data-name="Pfad 2291" d="M29.162,30.809c-.217-.217-.217-.87-.217-.87a51.949,51.949,0,0,0-2.827-11.09c0-.217,0-.217-.217-.435,0-.217,0-.435.435-.652A16.757,16.757,0,0,0,30.9,14.717c.217-.217.217-.217.435-.217a.213.213,0,0,1,.217.217,36.916,36.916,0,0,1,3.914,9.568c0,.217.217.652.217.87a1.88,1.88,0,0,1-.652,1.3,33.6,33.6,0,0,1-5.219,4.132s-.652.435-.652.217" transform="translate(30.421 17.031)" fill="#111"/>
          </g>
        </g>
      </g>
    </g>
  </g>
</svg>
