<?xml version="1.0" encoding="utf-8"?>
<!-- Generator: Adobe Illustrator 26.2.1, SVG Export Plug-In . SVG Version: 6.00 Build 0)  -->
<svg version="1.1" id="Layer_1" xmlns="http://www.w3.org/2000/svg" xmlns:xlink="http://www.w3.org/1999/xlink" x="0px" y="0px"
	 viewBox="0 0 707.7 898.5" style="enable-background:new 0 0 707.7 898.5;" xml:space="preserve">
<style type="text/css">
	.st0{fill:#FFFFFF;}
</style>
<path d="M707.7,449.5c0,108.7,0,217.3,0,326c0,27.2-7.9,51.9-24.2,73.6c-19,25.3-44.2,41.1-75.3,47.3c-6.9,1.4-13.8,2.1-20.9,2.1
	c-1.1,0-2.2,0-3.3,0c-153.4,0-306.8,0-460.1,0c-11.8,0-23.3-1.4-34.6-4.6C46,881.8,12.3,846.1,2.9,802.3C1,793.6,0,784.8,0,775.9
	c0-217.8,0-435.6,0-653.4C0,65.9,38.8,16.6,93.9,3.3c8.5-2.1,17.1-3.2,25.9-3.3c1.2,0,2.5,0,3.7,0C277,0,430.5,0,584,0
	c11.6,0,23,1.4,34.2,4.5c42.4,11.8,75.9,46.6,86,89.4c2.3,9.7,3.4,19.6,3.4,29.6C707.7,232.2,707.7,340.8,707.7,449.5z M492.7,399.5
	c0.8-0.2,1.3-0.4,1.9-0.6c5.1-1.5,8.8-4.7,11.2-9.5c0.7-1.3,1.4-2.6,2.1-3.9c15.8-30.1,22.8-62.1,20.4-96c-1.1-16-4.4-31.6-9.8-46.7
	c-3.5-10-7.9-19.6-13.2-28.7c-3.7-6.3-9.2-9.3-16.5-8.9c-9.8,0.6-17.3,10.2-15.5,19.9c0.5,2.6,1.6,4.9,2.8,7.1
	c10.4,18.5,16.4,38.3,18,59.5c1.3,18.2-0.7,36.1-6.3,53.5c-3.1,9.8-7.2,19.1-12.2,28c-3.9,6.9-3.5,13.6,1.2,20
	c0.3,0.4,0.5,0.8,0.8,1.4c-4.2,1.5-7.3,4-9,7.9c-1.8,4-1.7,8.1,0.2,12.1c3.4,6.8,11.7,9.7,18.6,6.5c3.4-1.6,5.8-4.1,7.2-7.6
	C496.4,408.6,495.3,404,492.7,399.5z M366.7,131.1c-0.4-0.1-0.5,0-0.6-0.1c-0.4-0.3-0.8-0.6-1.1-1c-3.8-3.6-8.2-5.2-13.4-4.8
	c-1.5,0.1-3,0.1-4.4,0.2c-11,0.2-21.8,1.6-32.5,4c-40.3,9.2-73.6,29.8-99.8,61.9c-5.6,6.9-10.5,14.2-15,21.8c-1.8,3-2.8,6.3-2.7,9.8
	c0.3,7.5,5.5,14,12.6,16c7.3,2,14.8-0.8,19-7.2c0.8-1.2,1.5-2.5,2.3-3.8c20.1-32.1,48.4-53.4,85-63.5c12-3.3,24.3-4.8,36.8-4.9
	c7.5-0.1,12.8-3.6,16-10.4c0.3-0.6,0.7-1.2,1.1-2c3.3,2.7,6.9,4.3,11,3.9c4.2-0.4,7.7-2.3,10.3-5.8c4.5-6.1,3.3-14.8-2.7-19.5
	c-2.9-2.3-6.3-3.2-10-2.9C372.9,123.5,369.3,126.7,366.7,131.1z M197.5,374.9c-0.2,0.9-0.4,1.5-0.5,2.1c-1.1,5.1-0.3,9.8,2.7,14
	c0.7,1,1.3,2.1,2,3.1c22.5,35.7,53.5,60.7,93.4,74.6c18,6.3,36.6,9.4,55.6,9.5c2.1,0,4.2,0,6.2-0.6c7.4-1.9,12.5-8.6,12.7-16.2
	c0.1-7.7-4.7-14.3-12-16.7c-2-0.7-4.1-0.7-6.2-0.7c-10.7-0.2-21.3-1.3-31.7-3.9c-39.1-9.7-69.1-31.9-90.1-66.3
	c-0.5-0.7-0.9-1.5-1.3-2.2c-2.6-3.9-6.1-6.2-10.6-7.3c-2.5-0.6-5.1-0.4-7.7-0.1c0-1.1,0-2.1,0-3c0.2-9.4-7.9-16.2-17.1-14.4
	c-7.1,1.4-12.2,8.9-10.9,16c1.2,6.4,6,11,12.4,11.8C195.1,374.7,196.1,374.8,197.5,374.9z M450.9,377.3c0.8-0.2,1-0.3,1.3-0.3
	c0.4,0,0.7,0,1.1-0.1c5.8-1,10.2-4,13-9.2c0.5-0.9,0.9-1.7,1.4-2.6c13.4-25.3,18.5-52.1,14.7-80.5c-2.2-16.8-7.6-32.5-15.8-47.2
	c-0.5-0.9-1-1.7-1.5-2.5c-4.5-6.3-12.4-8.8-19.6-6.3c-9.8,3.4-14.3,14.4-9.8,23.8c1.1,2.2,2.4,4.3,3.4,6.5c9.3,19,12.2,39,8.8,59.9
	c-1.9,11.4-5.8,22-11.5,32.1c-3.8,6.8-3.4,13.4,1.2,19.7c0.4,0.5,0.7,1.1,1,1.8c-8.3,1.8-13.2,6.4-14,13.4
	c-0.8,6.7,2.6,12.9,8.6,15.7c5.9,2.7,12.8,1.4,17.3-3.3c2.3-2.4,3.6-5.2,4.1-8.5C455.2,385,453.7,381.1,450.9,377.3z M248.3,341.6
	c0.2-1,0.4-1.6,0.6-2.3c0.8-2.9,1-5.9,0.1-8.7c-2.6-8.6-10.7-11.9-16.7-10.8c-9,1.5-13.4,9.1-13,15.9c0.5,8,6.8,14,14.7,14.2
	c1.1,0,2.2,0,3.5,0c-0.4,1.1-0.6,2-1,3c-1.8,5.2-1.2,10.1,1.6,14.9c1,1.6,2,3.1,3,4.7c7.9,12.4,17.7,23.3,29.3,32.4
	c17.6,13.9,37.5,22.7,59.6,26.7c7.6,1.3,15.4,1.9,23.1,1.8c5.9-0.1,12.9-3.9,15.6-11.6c2.4-6.8,0.2-14.4-5.5-18.9
	c-3.1-2.5-6.6-3.6-10.5-3.8c-4.9-0.2-9.8-0.5-14.7-1.2c-20.3-3-37.9-11.6-52.8-25.7c-6.9-6.4-12.5-13.8-17.3-21.9
	c-3.7-6.1-9.1-9.1-16.3-8.7C250.5,341.5,249.5,341.5,248.3,341.6z M369.8,191.9c1.1,1.1,2,2.1,3,3c5.1,4.4,12.5,4.9,18.2,1.2
	c5.5-3.6,8.1-10.4,6.3-16.8s-7.8-11.1-14.5-11.1c-5.7,0-10.1,2.6-13.2,7.4c-0.5,0.9-0.7,2-1.8,2.7c-0.7-0.8-1.2-1.5-1.7-2.1
	c-3.6-4.2-8.1-6.2-13.6-6.2c-8.8,0.1-17.4,0.8-26,2.7c-31.5,6.7-57.3,22.6-77.4,47.7c-3.8,4.8-7.3,9.9-10.4,15.2
	c-1.8,3-2.8,6.3-2.6,9.8c0.4,7.5,5.4,13.8,12.8,15.8c7,2,14.5-0.9,18.7-7.1c0.7-1,1.3-2.1,1.9-3.1c13.2-21.1,31.6-35.3,55.4-42.6
	c9-2.8,18.2-4,27.6-4.1c7.8-0.1,13.3-3.8,16.4-11C369.2,193.1,369.5,192.6,369.8,191.9z M410.2,354.7c1.7-0.1,2.6-0.2,3.6-0.3
	c5.9-0.6,10.4-3.6,13.3-8.8c12.2-22.1,14.9-45.2,7.5-69.4c-2-6.5-4.6-12.7-8.3-18.4c-5-7.6-14.8-9.9-22.7-5.5
	c-7.8,4.4-10.9,14.1-7,22.3c0.6,1.2,1.3,2.4,1.9,3.6c5.1,10.2,6.8,20.9,5.1,32.2c-0.9,6.1-2.9,11.9-5.9,17.3
	c-4.1,7.3-3.8,14.3,1.5,20.9c0.3,0.4,0.5,0.8,0.9,1.5c-4.2,0.2-7.8,1.1-10.8,3.7c-3.2,2.6-5,6-5.6,10.1c-1,6.9,2.9,13.6,9.4,16.4
	c6.2,2.6,13.4,1,17.8-4c2.3-2.6,3.6-5.5,3.9-9C415,362.6,413.5,358.6,410.2,354.7z M277.3,326.1c-0.3,0.7-0.4,1.2-0.6,1.6
	c-3.3,6.4-2.7,12.5,1.1,18.5c2.7,4.3,5.5,8.4,8.9,12.2c17.2,19.2,38.7,29.2,64.6,29.8c1.6,0,3.2,0,4.8-0.3
	c8.4-1.8,14.1-9.5,13.4-18.2c-0.7-9.2-8.4-15.4-15.9-15.7c-0.9,0-1.7,0-2.6-0.1c-14.4-0.6-26.7-5.9-36.8-16.3
	c-3-3.1-5.4-6.6-7.7-10.3c-4.2-6.5-10.2-9.3-17.9-8.2c-0.5,0.1-1.1,0-1.9,0c0.5-1.1,0.9-2,1.3-2.9c4-10.6-3.8-21.6-15.1-21.2
	c-8.4,0.3-15,7.1-15,15.5c0,8.5,6.8,15.5,15.3,15.6C274.3,326.1,275.6,326.1,277.3,326.1z M368.8,225.2c-0.7-1-1.1-1.6-1.5-2.2
	c-3.6-5.2-8.6-7.9-15-7.7c-4.5,0.1-9.1,0.3-13.6,1.1c-22.1,3.9-40.2,14.5-54.2,32.1c-2.7,3.4-5,7-7.2,10.7c-2.6,4.5-3,9.3-1.1,14.2
	c2.5,6.6,7.4,10.4,14.3,11.1c6.6,0.7,12-1.9,15.9-7.3c0.7-1,1.3-2.1,2-3.1c6.6-10.1,15.5-17.3,26.9-21.4c5.8-2.1,11.9-2.9,18.1-3.1
	c7.3-0.3,12.5-4,15.5-10.6c0.3-0.7,0.6-1.5,1-2.3c5.2,5.6,6.4,6.6,9.5,7.5c4,1.3,8,1,11.8-0.8c6.1-3,9.5-9.6,8.5-16.5
	c-1-6.5-6.5-12-12.9-12.9C378.8,212.8,373.1,216.3,368.8,225.2z M352.1,712.5c93.6,0,187.3,0,280.9,0c1.2,0,2.5,0.1,3.7-0.1
	c0.8-0.1,1.7-0.4,2.3-0.9c1.7-1.3,1.3-4-0.7-4.9c-0.7-0.3-1.4-0.4-2.1-0.4c-1.2-0.1-2.5,0-3.7,0c-186.9,0-373.8,0-560.8,0
	c-1.2,0-2.5,0-3.7,0c-0.6,0-1.2,0.1-1.8,0.3c-1.2,0.4-2.1,1.5-2.1,2.7c-0.1,1.2,0.7,2.5,1.9,2.9c0.6,0.2,1.2,0.3,1.8,0.3
	c1.2,0,2.5,0,3.7,0C165.1,712.5,258.6,712.5,352.1,712.5z M580.6,751c-0.6,3.7-0.8,56.7-0.4,71.7c0,0.7,0.2,1.4,0.3,2.3
	c1.3,0.1,2.5,0.2,3.7,0.2c6.1,0,12.3,0.1,18.4,0c3.2,0,6.4-0.2,9.5-0.6c13-1.9,23.7-9.6,27.8-24.1c2.1-7.5,2.2-15.1,0.6-22.6
	c-2.8-13-10.6-21.6-23.4-25.4c-3.7-1.1-7.4-1.6-11.3-1.6c-7.7,0-15.5,0-23.2,0C582,750.9,581.4,751,580.6,751z M249.8,825.3
	c0.1-1,0.3-1.6,0.3-2.2c0-11.7,0-23.3,0-35c0-0.6-0.2-1.1-0.4-1.9c-7,0-13.9,0-20.7,0c-0.5,0-0.9,0.2-1.6,0.3
	c-0.2,3.6-0.3,7.1,0.1,10.7c3.6,1,7.2-0.2,10.8,0.9c0,1.4,0,2.8,0.1,4.1c0,1.5,0,2.9,0,4.2c-3,3-6.2,4.9-9.8,6.3
	c-3.2,1.2-6.6,1.8-10.1,1.5c-10.3-1.1-17.2-6.6-20.7-16.3c-1.6-4.3-1.9-8.9-1.5-13.5c1-11.4,8.4-21.7,23.4-22.3
	c6.5-0.3,12.4,1.6,17.8,5.1c0.9,0.6,1.6,1.5,2.8,1.5c2.9-3.7,5.2-7.3,6-9.8c-1.7-1.7-3.8-3-6-4.2c-7.8-4.1-16.2-5.7-24.9-4.6
	c-14.5,1.8-24.3,9.7-30,23c-1.8,4.2-2.6,8.7-2.7,13.3c-0.3,8.1,1.3,15.9,5.4,23c11,18.7,34.9,22,49.1,10.8c0.5-0.3,1-0.6,1.6-1
	c0.7,2.1-0.2,4.2,0.8,6c0.8,0,1.6,0.1,2.3,0.1C244.3,825.3,246.9,825.3,249.8,825.3z M460.1,751c-0.7,3.5-1,57.1-0.4,71.7
	c0,0.7,0.2,1.4,0.3,2.1c3.6,0.6,10,0.6,12.7-0.2c0-1.2,0.1-2.4,0.1-3.6c0-6.9,0-13.8,0-20.6c0-0.9,0.2-1.9,0.3-3
	c4.3-0.1,8.3-0.1,12.3,0c0.7,1.4,1.4,2.5,2,3.7c3.7,7.1,7.3,14.2,11,21.3c0.5,1,1.1,1.9,1.6,2.7c4.6,0,8.9,0,13.2,0
	c0.1,0,0.3,0,0.3-0.1c0.1-0.1,0.1-0.2,0.2-0.3c0-0.2,0.1-0.5,0-0.7c-5.3-10.1-10.7-20.1-16.2-30.4c0.5-0.3,1.1-0.8,1.7-1.1
	c4.3-2.5,7.1-6.3,8.7-11c1.7-5,2-10.1,0.5-15.2c-2.5-8.5-8-13.6-16.8-14.9c-2.2-0.3-4.4-0.5-6.6-0.5c-7.4-0.1-14.7,0-22.1,0
	C462,750.9,461.2,751,460.1,751z M93,797.4c0.8,1.4,1.4,2.5,2,3.7c3.7,7.2,7.4,14.4,11.2,21.6c0.4,0.8,1,1.6,1.6,2.5
	c4.6,0,9.1,0.1,14.2-0.2c-2.9-5.6-5.7-10.8-8.5-15.9c-2.8-5.2-5.5-10.3-8.4-15.5c0.6-0.4,1.1-0.7,1.7-1c4.3-2.5,7.1-6.3,8.8-11
	c1.8-5,2-10.1,0.5-15.2c-2.4-8.5-7.9-13.7-16.8-15c-2.2-0.3-4.4-0.5-6.6-0.5c-7.4-0.1-14.7,0-22.1,0c-1,0-1.9,0.1-2.8,0.2
	c-0.8,1.4-0.5,2.8-0.5,4.1c0,19,0,38.1,0,57.1c0,3.4,0,6.9,0,10.3c0,0.8,0.3,1.6,0.4,2.6c4.2,0,8.2,0.3,12.5-0.2
	c0.1-1.4,0.2-2.6,0.2-3.8c0-6.9,0-13.8,0-20.7c0-0.9,0.1-1.9,0.2-3C84.8,797.3,88.7,797.5,93,797.4z M381.2,658.2
	c0.5-1.2,0.3-2.6,0.3-3.9c-0.1-14.4,0.4-28.8-0.3-43.1c0-0.5-0.1-1,0.6-1c1.8,3.1,3.4,6.2,5.3,9.2c8,12.3,16.2,24.7,24.3,37
	c0.5,0.8,1.2,1.5,1.8,2.3c2.1,0,4.1,0,6,0c1.9,0,3.9,0.2,5.8-0.2c0.2-0.6,0.3-0.9,0.3-1.2c0-22,0-44,0-66c0-0.3-0.2-0.7-0.3-1.2
	c-1.9-0.5-3.8-0.3-5.8-0.2c-2,0.1-4.1-0.5-6.3,0.6c0.2,16.1-0.3,32.2-0.1,48.4c-0.4-0.7-0.8-1.5-1.2-2.2c-1.5-2.6-2.8-5.2-4.4-7.7
	c-7.9-12.2-15.9-24.2-23.8-36.4c-0.6-0.9-1.3-1.8-2-2.8c-2,0-4-0.1-5.9,0c-2,0.1-4.1-0.4-6.1,0.3c-0.5,3.4-0.8,54.4-0.3,66.1
	c0,0.7,0.2,1.4,0.3,2.1C372.7,658.8,378.4,658.8,381.2,658.2z M537.4,781.9c0-2.5-0.1-4.6-0.1-6.7c0-2.1,0-4.2,0-6.3
	c0.1-2-0.3-4.1,0.3-6.3c1.4,0,2.6-0.1,3.8-0.1c7.6,0,15.2,0,22.8,0c0.9,0,2,0.3,3-0.8c-0.1-3.3,0.4-7-0.3-10.6
	c-0.7-0.1-1.2-0.2-1.7-0.2c-13.4,0-26.8,0-40.1,0.1c-0.1,0-0.2,0.1-0.3,0.1c-0.1,0.1-0.2,0.2-0.3,0.2c-0.6,3.5-0.8,48.8-0.3,71
	c0,0.8,0.2,1.7,0.2,2.3c0.3,0.2,0.4,0.3,0.5,0.4c0.2,0.1,0.5,0.2,0.7,0.2c13.3,0,26.5,0,39.8,0c0.9,0,1.7-0.1,2.6-0.1
	c0.1,0,0.2,0,0.3-0.1c0.1-0.1,0.2-0.2,0.3-0.2c0.6-2.9,0.6-7.9,0-11.1c-1.1,0-2.3-0.1-3.5-0.1c-8.2,0-16.5,0-24.7,0
	c-0.9,0-1.9-0.2-2.8-0.2c-0.5-4.5-0.4-16.6,0.2-19.6c3.8-0.2,7.7,0,11.6-0.1c3.9,0,7.8,0,11.7,0c0.8-3.3,0.8-8.9-0.1-11.7
	C553.3,781.9,545.6,781.9,537.4,781.9z M132.2,751c-0.5,3.7-0.8,57.1-0.4,71.7c0,0.7,0.2,1.4,0.2,1.9c0.3,0.2,0.4,0.4,0.5,0.4
	c0.6,0.1,1.2,0.2,1.8,0.2c13.8,0,27.5-0.1,41.2-0.1c0.1,0,0.2,0,0.4-0.1s0.2-0.2,0.3-0.3c0.6-3,0.6-8-0.1-11.1
	c-1.1,0-2.3-0.1-3.5-0.1c-8.2,0-16.5,0-24.7,0c-0.9,0-1.9-0.2-2.8-0.2c-0.5-4.3-0.4-16.6,0.2-19.6c1.1,0,2.3-0.1,3.5-0.1
	c5.9,0,11.8,0,17.7,0c0.8,0,1.6-0.2,2.6-0.4c0-2,0.1-3.9,0-5.7c-0.1-1.8,0.4-3.6-0.6-5.6c-1.3,0-2.5,0-3.7,0c-5.8,0-11.5,0-17.3,0
	c-0.8,0-1.6-0.2-2.6-0.3c0-2.3,0-4.4,0-6.5c0-2.1,0-4.2,0-6.3c0.1-2-0.3-4.1,0.4-6.2c1.4,0,2.6-0.1,3.8-0.1c7.6,0,15.2,0,22.8,0
	c0.9,0,2,0.3,3-0.9c0-1.5,0-3.3,0-5.2c-0.1-1.8,0.3-3.6-0.4-5.4C160.4,751,146.4,751,132.2,751z M404.2,751
	c-0.6,3.4-0.9,59.5-0.4,71.7c0,0.7,0.2,1.4,0.3,2.2c0.7,0.1,1.3,0.2,1.9,0.2c13.5,0,27,0,40.5,0c0.6,0,1.2-0.2,2-0.4
	c-0.1-3.7,0.3-7.3-0.3-11.2c-3.6,0-7,0-10.5,0c-3.4,0-6.9,0-10.3,0c-3.4,0-6.8,0.1-10.4-0.1c-0.5-2.4-0.2-4.6-0.2-6.8
	c0-2.1-0.1-4.2,0-6.3c0.1-2.2-0.3-4.4,0.4-6.7c2.7,0,5.2,0,7.8-0.1c2.7,0,5.4,0,8.1,0c2.5,0,5.1,0.1,7.8-0.2c0.4-3.9,0.4-7.5,0-11.3
	c-1.3-0.1-2.5-0.2-3.7-0.2c-5.8,0-11.5,0-17.3,0c-0.9,0-1.9-0.2-2.7-0.3c-0.2-0.5-0.3-0.7-0.3-1c0-5.5,0-11,0-16.6
	c0-0.4,0.3-0.9,0.5-1.5c1.3,0,2.5,0,3.7,0c7.5,0,15,0,22.5,0c1.1,0,2.2,0.3,3.4-0.8c0-1.6,0-3.5,0-5.3c-0.1-1.8,0.3-3.6-0.4-5.5
	C432.4,751,418.4,751,404.2,751z M327,768.1c2-2.5,4.9-8.2,5.6-11c-0.3-0.2-0.7-0.5-1-0.8c-8.8-6.5-18.5-8.3-28.9-5.3
	c-3.8,1.1-7.1,3.2-9.9,6.2c-7,7.3-8.7,21.4,2.5,29.4c1.7,1.2,3.5,2.3,5.3,3.3c2,1.1,4.2,2,6.3,3c2.2,1,4.5,2,6.7,3.1
	c1.6,0.8,3.2,1.8,4.6,3c5.3,4.3,3.3,11.9-2.3,14.1c-2.2,0.8-4.5,1.2-6.9,0.9c-5-0.5-9.4-2.5-13.5-5.5c-0.9-0.6-1.7-1.3-2.8-2
	c-2.5,3.3-4.8,6.4-6.9,9.8c0.6,0.7,1,1.2,1.6,1.7c8.4,7,18.1,9.5,28.9,8c2.7-0.4,5.2-1.4,7.6-2.7c12.4-6.8,14.9-26.3,1.7-34.8
	c-1.6-1.1-3.3-2.1-5.1-3c-2.5-1.3-5.1-2.3-7.7-3.5c-2.1-1-4.3-1.9-6.3-3c-1.4-0.8-2.7-1.7-3.9-2.8c-3-2.9-3.1-7.1-0.4-10.3
	c1.3-1.5,3-2.5,4.9-3.1c2.1-0.7,4.3-0.8,6.5-0.5c3.7,0.6,7.1,1.9,10.2,3.9C324.9,766.8,325.9,767.5,327,768.1z M171.2,609.4
	c0,1.6-0.1,2.8-0.1,4c0,4.7,0,9.3,0,14c0,15.5,0,31,0,46.4c0,1.3-0.3,2.7,0.5,4.1c3.8,0,7.7,0.3,11.7-0.3c0-1.4,0.1-2.6,0.1-3.8
	c0-6,0-12,0-18c0-0.5-0.2-1.2,0.7-1.6c0.7,0.6,1.4,1.2,2.2,1.8c2.7,2.1,5.7,3.3,9.1,3.7c9.9,0.9,18.2-3.9,22.3-12.9
	c1.8-3.9,2.5-8,2.5-12.2c0.1-5.7-0.9-11.2-3.8-16.3c-7.3-12.7-24.8-13-32.5-4.2c-0.4,0.4-0.7,1.1-1.5,0.8c-0.4-1.8,0.2-3.6-0.5-5.6
	C178.4,609.1,175,609,171.2,609.4z M237.8,654c0.6,0.1,0.7,0.1,0.8,0.2c0.3,0.2,0.6,0.4,0.9,0.7c5.5,5.1,12,5.9,18.9,4
	c7.3-2,11.9-7.1,14.4-14.1c2.1-5.9,2.2-12,1.1-18.2c-0.5-2.8-1.5-5.4-2.8-7.9c-7.3-13.4-25.2-13.4-32.7-4.7
	c-0.4,0.4-0.7,1.1-1.5,0.7c-0.1-1.7-0.2-3.3-0.3-5c-3.2-0.7-7.8-0.6-10.6,0c-0.1,0.1-0.2,0.2-0.2,0.3c-0.1,0.6-0.1,1.2-0.1,1.8
	c0,21.7,0,43.5,0.1,65.2c0,0.1,0,0.2,0.1,0.3s0.2,0.2,0.5,0.5c1.6,0.3,3.6,0.2,5.5,0.1c1.9,0,3.9,0.4,6-0.5c0-3.8,0-7.6,0-11.4
	C237.8,662.1,237.8,658.2,237.8,654z M109.6,596c-1.5-1.7-3.1-2.7-4.7-3.6c-6.1-3.4-12.7-4.5-19.6-3.6c-5.9,0.8-11,3.2-14.9,7.9
	c-5.3,6.3-6.8,18.4,2.8,25.5c1.4,1,2.8,2,4.3,2.8c2.4,1.3,4.9,2.4,7.3,3.5c2.6,1.2,5.2,2.3,7.7,3.6c1.6,0.9,3.1,2,4.4,3.3
	c1.8,1.8,2.2,4,1.6,6.5c-0.7,2.9-2.6,4.7-5.3,5.6c-2.4,0.8-4.8,1-7.3,0.5c-4.5-0.7-8.4-2.6-12.1-5.2c-0.8-0.5-1.4-1.5-2.7-1.2
	c-2,2.8-4.1,5.6-6.1,8.4c0.6,1.6,1.8,2.2,2.9,3c7.7,5.7,16.4,7.5,25.8,6.2c2.9-0.4,5.7-1.5,8.2-3c11-6.5,13.3-23.9,0.9-31.8
	c-1.6-1-3.1-1.9-4.8-2.7c-2.2-1.1-4.5-2-6.7-3c-2.2-1-4.5-1.9-6.7-3.1c-1.4-0.7-2.7-1.7-3.9-2.8c-2.5-2.5-2.6-6.3-0.5-9.1
	c0.9-1.2,2.1-2.1,3.4-2.7c2.1-0.9,4.2-1.2,6.5-1.1c4.1,0.2,7.9,1.7,11.4,3.9c0.9,0.6,1.8,1.1,2.9,1.7
	C106.3,602.4,107.9,599.3,109.6,596z M373,824.9c0-1.5,0-2.8,0-4c0-4.5,0-9.1,0-13.6c0-13.5,0-27,0-40.5c0-1.3-0.3-2.7,0.5-4.1
	c1.2,0,2.5-0.1,3.7-0.1c5.5,0,11,0,16.6,0c1,0,2,0.2,2.8-0.6c0.5-4.9,0.4-8.6-0.5-11c-19.3,0-38.7,0-58.1,0c-0.5,0-0.9,0.2-1.5,0.2
	c-0.3,3.7-0.4,7.3,0.1,11.2c1.4,0.1,2.5,0.2,3.8,0.2c5.5,0,11,0,16.6,0c0.9,0,1.9,0.2,3,0.3c0,1.5,0.1,2.9,0.1,4.2
	c0,16.2,0,32.4,0,48.6c0,2.5,0,4.9,0,7.4c0,0.7,0.3,1.4,0.5,2.2c3.7,0,7.3,0,10.8,0C371.7,825.2,372.1,825.1,373,824.9z M559,659.7
	c6.1,0,11.3-1.5,16-4.6c14.4-9.5,15.2-30.8,1.6-41.3c-9.8-7.6-24.4-7.8-34.4-0.5c-13.5,9.8-13.7,29.8-1.5,40
	C546,657.7,552.2,659.7,559,659.7z M296.3,675.6c0.3,0.4,0.4,0.6,0.6,0.7c7.2,4.5,18.5,3.7,24.5-5.2c1.1-1.6,2-3.4,2.7-5.2
	c7-18,14-35.9,20.9-53.9c0.3-0.8,0.5-1.6,0.7-2.4c-3-0.6-9.8-0.6-13.1-0.1c-1.2,3.6-2.5,7.3-3.8,11c-1.3,3.8-2.6,7.7-3.9,11.5
	c-1.2,3.7-2.4,7.4-3.8,11.5c-0.8-2.4-1.3-4.3-1.9-6.1c-3.2-8.8-6.4-17.5-9.6-26.3c-0.2-0.7-0.6-1.3-0.9-1.8
	c-4.2-0.4-10.3-0.3-13,0.2c-0.4,1.3,0.5,2.3,1,3.4c3.4,8,6.9,16,10.3,24c2.7,6.2,5.3,12.4,8,18.6c0.4,0.9,1,1.8,0.6,2.8
	c-0.9,2.4-1.7,4.9-3.4,6.9c-2.5,3-6,3.9-9.6,2.6c-0.8-0.3-1.5-0.7-2.4-1.1C298.5,669.8,297.2,672.6,296.3,675.6z M462.6,627.5
	c-1.7,0.1-3.1,0.2-4.6,0.2c-4.1,0-8.1,0.6-12,1.6c-2.9,0.7-5.6,1.8-8,3.5c-2.7,1.9-4.8,4.3-5.6,7.5c-1.7,7,0.8,13.7,7.3,17.3
	c5.6,3,16.1,3.6,22.2-3.8c0.4-0.5,0.7-1.4,1.9-1c0,1.7,0,3.5,0,5.3c2.9,0.7,7.4,0.7,11,0.1c0.1-1,0.2-2.1,0.2-3.1
	c0-9.1,0-18.2,0-27.3c0-1.1,0-2.2-0.1-3.3c-0.8-8.4-6.2-14.3-14.4-16c-8.3-1.6-16.1,0-23.4,4.2c-0.6,0.4-1.2,0.9-1.8,1.4
	c1.5,2.9,2.7,5.8,4.6,8.4c1.8-0.9,3.4-1.8,5.1-2.5c3.2-1.4,6.5-2.2,10-1.8C460.2,618.6,462.7,621.5,462.6,627.5z M150.2,609.2
	c-0.1,1.7-0.2,2.9-0.2,4.1c0,5.4,0,10.8,0,16.2c0,1.8-0.1,3.7-0.3,5.5c-0.2,2.6-1.1,5-2.5,7.2c-2.8,4.4-6.9,6.5-12.1,6.2
	c-3.2-0.2-5.3-1.8-6-5c-0.4-1.8-0.6-3.6-0.6-5.5c-0.1-8.5,0-17,0-25.4c0-1.1,0.3-2.2-0.7-3.4c-2.9,0-5.9,0-9,0
	c-0.7,0-1.4,0.1-2.3,0.2c-0.1,0.7-0.3,1.3-0.3,1.9c0,10.3,0,20.6,0,31c0,2.6,0.4,5.2,1.2,7.6c1.4,4,4,7.1,8,8.6
	c6.8,2.5,16.5,2,22.8-5.6c0.5-0.6,1-1.2,1.9-2.2c0.6,2.8-0.1,5.3,0.5,7.6c3.6,0.7,8.9,0.6,11.6-0.2c0-15.5,0-31.1,0-46.7
	c0-0.6-0.1-1.2-0.2-2C158.1,609,154.4,609.2,150.2,609.2z M591.5,658.7c4.2-0.2,8.1,0.4,12.1-0.4c0-1.4,0.1-2.6,0.1-3.8
	c0-5.8,0-11.5,0-17.3c0-1.6,0-3.2,0.2-4.8c0.3-3,1.4-5.7,3.3-8.1c3.1-3.8,7.2-5.5,12-5c3.6,0.4,5.5,2.3,6.1,5.8
	c0.3,1.8,0.4,3.7,0.4,5.5c0,7.9,0,15.7,0,23.6c0,1.3-0.3,2.7,0.5,4.1c1.8,0.5,3.8,0.3,5.7,0.2c1.9,0,3.9,0.4,5.7-0.4
	c0.1-0.4,0.2-0.6,0.2-0.9c0-11.1,0.1-22.1-0.1-33.2c0-2.4-0.7-4.9-1.5-7.2c-1.4-4.1-4.4-6.8-8.5-8c-8.2-2.5-17.3-0.5-22.7,6.4
	c-0.4,0.5-0.6,1.3-1.7,1.3c-0.5-2.3,0.2-4.8-0.4-7.2c-2-0.5-3.8-0.3-5.6-0.3c-1.9,0-3.9-0.4-5.8,0.5
	C591.5,625.9,591.5,642,591.5,658.7z M478.8,610.1c-0.5,5.2-0.4,7.3,0.4,9.4c1.8,0.4,3.7-0.2,5.6,0.6c0,1.2,0.1,2.5,0.1,3.7
	c0,4.9,0,9.8,0,14.8c0,1.8,0,3.7,0.3,5.5c0.8,6.6,4.3,11.1,10.5,13.5c3.6,1.4,7.4,1.7,11.2,1.5c0.7,0,1.4-0.3,2-0.5
	c0.6-4,0.5-7.4-0.2-10.1c-1.2-0.1-2.4-0.1-3.6-0.3c-5-0.8-7.6-3.6-7.9-8.7c0-0.4,0-0.7,0-1.1c0-5.4,0-10.8,0-16.2
	c0-0.7,0.1-1.4,0.2-2.2c3.7-0.6,7.2,0.1,10.8-0.5c0.3-3.1,0.5-6.1-0.1-9.3c-3.6-0.5-7.2,0.2-10.7-0.5c-0.6-4.7,0.2-9.2-0.5-13.6
	c-3.4-0.7-8.8-0.6-11.7,0.1c0,2.1,0,4.3,0,6.5c0,2.3,0.2,4.6-0.2,7.1C482.8,609.9,480.9,610,478.8,610.1z M262.6,751
	c-0.6,3.7-0.9,45.2-0.4,70.9c0,1,0.1,1.9,0.2,2.8c3.1,0.7,9.8,0.7,12.6,0c0.1-0.4,0.2-0.9,0.2-1.4c0-23.7,0-47.3,0-71
	c0-0.3-0.2-0.7-0.3-1.2C270.9,750.7,266.9,750.9,262.6,751z M291.5,590.2c-3.6-0.7-8.9-0.6-11.8,0c-0.5,1.2-0.3,2.6-0.3,3.9
	c0,14.8,0,29.7,0,44.5c0,2.1-0.1,4.2,0.1,6.3c0.1,1.8,0.4,3.7,0.9,5.4c1.4,4.7,4.6,7.5,9.3,8.3c2.1,0.4,4.4,0.3,6.6,0.3
	c0.7,0,1.4-0.3,2.1-0.5c0.1-3.5,0.4-6.7-0.2-10.1c-0.8-0.1-1.4-0.1-2-0.2c-3-0.5-4-1.4-4.5-4.5c-0.2-1.3-0.2-2.7-0.2-4
	c0-15.1,0-30.2,0-45.3C291.5,593,291.5,591.7,291.5,590.2z M400.2,220.2c-0.2,6.8,5.2,14,13.9,14.1c8.7,0,14.1-6.8,14.2-13.9
	c0.1-7.2-5.4-14.3-14.2-14.3C405.6,206.1,400,213.2,400.2,220.2z M250.6,275c-7.1-0.3-14.1,5.6-14.2,13.9
	c-0.1,7.9,6.3,14.3,14.2,14.3c7.7,0,14.1-6.4,14-14.1C264.5,280.6,257.5,274.8,250.6,275z M392.1,410.5c7.9-0.2,14-6.3,14-14.1
	c-0.1-8.1-6.3-14-14-14c-8,0-14.2,6.3-14.1,14.3C378,404.4,384.4,410.6,392.1,410.5z M526.3,609.2c-4,0-7.7-0.3-11.6,0.2
	c-0.1,0.9-0.2,1.6-0.2,2.3c0,2,0,3.9,0,5.9c0,12.3,0,24.6,0,36.8c0,1.3-0.3,2.7,0.4,3.8c4.4,0.5,8.9,0.4,11.4-0.2
	C526.8,655.2,526.9,612.9,526.3,609.2z M397.4,171.9c-0.2,6.1,4.7,13.1,13,13.1c7.7,0,13.1-6.2,13.1-13.1c0-7.1-5.7-13.2-13.1-13.2
	C402.3,158.8,397.2,165.6,397.4,171.9z M197.5,316.6c-0.2,5.9,4.7,13,13.2,12.9c8.1-0.1,13-6.8,12.9-13.3
	c-0.1-6.5-5.4-13.1-13.3-12.9C202.3,303.5,197.2,310.2,197.5,316.6z M422.6,417.3c0,7.2,5.8,13.1,13.1,13.1
	c7.2,0,13.2-5.9,13.2-13.1s-5.9-13.1-13.1-13.1C428.4,404.2,422.6,410.1,422.6,417.3z M441.5,217.9c7.7,0.2,12.7-6.2,12.9-12
	c0.2-5.9-4.1-12.8-12.2-13c-7.5-0.2-12.7,5.7-12.9,12.4C429.1,212,434.7,217.7,441.5,217.9z M391,415.3c-6.8,0-12.5,5.5-12.6,12.3
	c-0.1,6.9,5.7,12.8,12.6,12.8c6.8,0,12.4-5.5,12.5-12.4C403.6,420.9,398.1,415.3,391,415.3z M223.9,285c6.9,0,12.4-5.5,12.5-12.4
	c0.1-6.9-5.7-12.7-12.6-12.7c-7,0.1-12.6,5.8-12.4,12.8C211.5,279.7,217,285.1,223.9,285z M434.2,164.6c5.3,0.3,11-4.1,11.2-10.8
	c0.2-6.2-5-11.4-11.2-11.3c-6.1,0-11,5-11,11.1C423.2,159.7,428,164.6,434.2,164.6z M450.7,447c-0.1-6.1-5-11-11.1-11
	c-6,0-11,5-11,11c0,6.2,5.1,11.2,11.3,11.1C445.9,458,450.7,453.1,450.7,447z M391.4,121.9c0.1,6.1,5,10.9,11.1,10.9
	c6,0,11.1-5.1,11-11c-0.2-7.5-6.4-11.2-11.3-11.1C396.1,110.9,391.4,115.8,391.4,121.9z M482.9,446.4c6.3,0.3,11.1-5.2,11.2-10.7
	c0.1-4.8-3.5-11.3-11.1-11.3c-7.3,0-11,6-11,11C472,442,477.5,446.6,482.9,446.4z M193.9,305c0-6-5-11.1-11-11.1
	c-7.5,0.1-11.3,6.3-11.2,11.2c0.2,6.1,5,10.9,11.1,10.9C189,316,193.9,311.1,193.9,305z M171.2,359.5c6.1,0,10.9-4.8,11.1-10.9
	c0.1-4.9-3.7-11.1-11.2-11.2c-6,0-10.9,5.1-10.9,11.1C160.1,354.6,165.1,359.5,171.2,359.5z M466,196.4c5.6,0.3,11-4.4,11.1-10.8
	c0.1-6-4.9-11.2-10.9-11.1c-7.4,0.1-11.1,6.1-11.1,10.9C455,191.9,460.6,196.6,466,196.4z M407.1,458.8c0-6.1-4.8-11-10.9-11
	c-6,0-11.1,4.9-11.1,10.9c0,6,5,11.2,11,11.1C403.2,469.7,407.3,463.8,407.1,458.8z M194.6,272.5c5.4,0.1,10.9-4.3,10.9-11
	c0-6-5.1-10.9-11.1-10.9c-6.1,0.1-10.9,5-10.9,11.1C183.6,267.7,188.4,272.5,194.6,272.5z M416.6,488.2c0-5.1-4.1-9.4-9.2-9.5
	c-5.3-0.1-9.7,4.1-9.7,9.4c0,5.2,4.4,9.6,9.6,9.5C412.4,497.5,416.6,493.3,416.6,488.2z M495.5,161.1c-0.1-5.3-4.5-9.4-9.8-9.3
	c-5.1,0.1-9.3,4.4-9.2,9.5c0.2,5.5,4.7,9.5,9.8,9.3C491.5,170.4,495.6,166.2,495.5,161.1z M163.6,265.8c5.2,0,9.4-4.1,9.4-9.3
	c0-5.8-4.6-9.6-9.5-9.5c-5.3,0.1-9.5,4.3-9.4,9.7C154.2,261.8,158.4,265.8,163.6,265.8z M451,483.9c5,0,9.1-4.1,9.1-9.1
	c0-4.9-4-8.9-8.8-9c-5-0.1-9.2,3.9-9.3,8.9C441.9,479.7,446,483.9,451,483.9z M453,120.8c-5.1-0.2-9.3,3.5-9.5,8.6
	c-0.3,4.8,3.6,9.1,8.4,9.4c5.4,0.4,9.4-3.9,9.7-8.4C461.9,125.4,458.1,121.1,453,120.8z M153.1,310c5,0,9.1-4.1,9-9.1
	c-0.1-4.8-4.1-8.7-8.9-8.9c-4.4-0.1-9.1,3.3-9.2,9C143.9,306,148.1,310,153.1,310z M151.9,346.5c-0.1-4.3-3.7-7.9-8-7.9
	c-4.3,0-7.9,3.6-8,7.9c0,4.4,3.9,8.2,8.2,8.1C148.5,354.5,152,350.9,151.9,346.5z M495.2,452c-4.5,0-8,3.4-8,7.9c0,4.5,3.4,8,7.9,8
	c4.5,0,8-3.4,8-7.9C503.1,455.5,499.7,452.1,495.2,452z M425.6,99.1c0-4.4-3.6-8-8-8c-4.3,0-8,3.7-8,8c0,4.4,3.6,7.9,8,7.9
	C422.1,107,425.6,103.5,425.6,99.1z M508.8,133.6c0-4.3-3.6-8-7.9-8.1c-4.3,0-8,3.7-7.9,8.1c0.1,4.2,3.5,7.7,7.8,7.9
	C505,141.6,508.7,138,508.8,133.6z M132.1,265.3c4.4,0,8-3.6,8-8c0-4.2-3.5-7.8-7.7-7.9c-4.3-0.1-8,3.4-8.1,7.8
	C124.2,261.5,127.8,265.2,132.1,265.3z M431.5,515.2c0.3-4.8-3.6-8.1-7.6-8.3c-4.3-0.2-8.1,3.4-8.2,7.7c-0.1,4.4,3.4,8.1,7.8,8.1
	C427.8,522.8,431.4,519.4,431.5,515.2z M464.2,95.1c-3.9,0-7,3-7.1,6.9c0,3.9,3,7.1,6.9,7.1c3.8,0.1,7.1-3.2,7.1-6.9
	C471.2,98.4,468,95.2,464.2,95.1z M123.2,298c-3.9,0-6.9,3.1-6.8,7.1c0,3.9,3.3,7,7.1,6.9c3.8-0.1,7-3.4,6.9-7.2
	C130.3,301,127.1,297.9,123.2,298z M476.3,498.7c0-3.8-3.2-7-7-7c-3.9,0-7,3.1-7,7c0,3.8,3.2,7,7,7
	C473.2,505.7,476.3,502.5,476.3,498.7z M526.5,600.4c0.1-3.8,0.5-7.1-0.2-10.7c-2,0-3.8-0.1-5.7-0.1c-1.9,0.1-3.9-0.4-5.7,0.4
	c-0.6,4.2-0.5,7.9,0.3,10.3C518.8,600.4,522.4,600.4,526.5,600.4z M451.4,537.6c0.1-3.1-2.5-6.2-6.3-6.3c-3.4-0.1-6.3,2.9-6.3,6.3
	c0,3.6,3,6.6,6.6,6.4C448.8,543.9,451.5,541.1,451.4,537.6z M101.8,270.8c3.5-0.1,6.2-2.9,6.1-6.4c0-3.5-2.8-6.2-6.3-6.2
	c-3.6,0-6.6,3-6.4,6.6C95.4,268.1,98.3,270.9,101.8,270.8z M516.3,103.6c0-3.5-2.6-6.3-6.1-6.4c-3.5-0.1-6.4,2.5-6.5,6
	c-0.1,3.6,2.8,6.7,6.3,6.7C513.4,109.9,516.2,107.1,516.3,103.6z M90.6,316.6c0.1,2.7,2.3,4.9,4.9,4.9c2.6,0,4.9-2.3,4.9-5
	c0-2.9-2.4-5.2-5.1-5C92.7,311.6,90.6,313.9,90.6,316.6z M472.9,72.5c0.1-2.8-1.9-5-4.6-5.2c-2.7-0.2-5.2,2.2-5.2,5
	c0,2.7,2.2,4.9,4.8,5C470.5,77.4,472.8,75.2,472.9,72.5z M493.3,512c-2.6-0.1-5,2.1-5.1,4.7c-0.1,2.8,2.2,5.2,5,5.2
	c2.7,0,4.9-2.2,4.9-4.9C498.1,514.3,496,512.1,493.3,512z M118.2,360.3c2.7-0.1,4.9-2.3,4.8-5c-0.1-2.6-2.4-4.9-5-4.8
	c-2.6,0.1-4.9,2.4-4.8,5C113.2,358.2,115.5,360.3,118.2,360.3z M520.6,478c0-2.6-2.2-5-4.8-5s-4.9,2.2-4.9,4.9c0,2.7,2.1,5,4.8,5
	C518.2,482.9,520.5,480.7,520.6,478z M427.8,72.2c0-2.7-2.3-4.9-4.9-4.9c-2.6,0-4.8,2.3-4.8,5c0,2.7,2.2,4.9,4.9,4.9
	C425.7,77.2,427.8,75,427.8,72.2z M72.9,282.2c2.7,0.1,5-2.1,5-4.8c0-2.5-2.1-4.7-4.6-4.8c-2.6-0.1-4.8,1.9-4.9,4.4
	C68.1,279.8,70.2,282.1,72.9,282.2z M470.7,560.7c2.6,0,4.7-2,4.8-4.6c0.1-2.6-2.2-5-4.8-5c-2.7,0-4.8,2.3-4.7,5
	C466,558.8,468,560.7,470.7,560.7z M517.8,72.4c0-2.7-2.3-5-4.9-4.9c-2.5,0.1-4.7,2.3-4.7,4.8c0,2.7,2.2,4.9,5,4.8
	C515.7,77,517.8,75,517.8,72.4z"/>
<path class="st0" d="M492.7,399.5c2.7,4.5,3.7,9,1.7,13.9c-1.4,3.5-3.8,6-7.2,7.6c-6.8,3.2-15.2,0.3-18.6-6.5c-2-4-2-8.1-0.2-12.1
	c1.7-3.9,4.9-6.4,9-7.9c-0.3-0.6-0.5-1-0.8-1.4c-4.7-6.4-5.2-13.1-1.2-20c5-8.9,9.1-18.2,12.2-28c5.6-17.4,7.6-35.3,6.3-53.5
	c-1.5-21.1-7.5-41-18-59.5c-1.3-2.3-2.4-4.6-2.8-7.1c-1.8-9.7,5.7-19.3,15.5-19.9c7.3-0.4,12.9,2.6,16.5,8.9
	c5.3,9.2,9.7,18.8,13.2,28.7c5.4,15.1,8.7,30.7,9.8,46.7c2.4,34-4.6,65.9-20.4,96.1c-0.7,1.3-1.4,2.6-2.1,3.9
	c-2.3,4.8-6.1,8-11.2,9.5C494,399.1,493.4,399.3,492.7,399.5z"/>
<path class="st0" d="M366.7,131.1c2.6-4.4,6.2-7.7,11.7-8.2c3.7-0.4,7.1,0.6,10,2.9c6,4.6,7.2,13.3,2.7,19.5
	c-2.5,3.5-6,5.4-10.3,5.8c-4.1,0.4-7.7-1.2-11-3.9c-0.4,0.7-0.8,1.3-1.1,2c-3.2,6.7-8.5,10.3-16,10.4c-12.5,0.2-24.7,1.6-36.8,4.9
	c-36.6,10.1-64.8,31.3-85,63.5c-0.8,1.2-1.5,2.6-2.3,3.8c-4.2,6.4-11.7,9.2-19,7.2c-7.1-1.9-12.3-8.5-12.6-16
	c-0.1-3.5,0.9-6.8,2.7-9.8c4.5-7.6,9.4-15,15-21.8c26.2-32.1,59.5-52.7,99.8-61.9c10.7-2.4,21.5-3.8,32.5-4c1.5,0,3-0.1,4.4-0.2
	c5.2-0.4,9.7,1.2,13.4,4.8c0.3,0.3,0.7,0.7,1.1,1C366.2,131.1,366.3,131.1,366.7,131.1z"/>
<path class="st0" d="M197.5,374.9c-1.4-0.1-2.3-0.1-3.3-0.3c-6.5-0.9-11.3-5.4-12.4-11.8c-1.3-7.2,3.8-14.6,10.9-16
	c9.2-1.9,17.4,5,17.1,14.4c0,1,0,1.9,0,3c2.6-0.3,5.2-0.5,7.7,0.1c4.5,1.1,8.1,3.5,10.6,7.3c0.5,0.7,0.9,1.5,1.3,2.2
	c21,34.4,51,56.6,90.1,66.3c10.4,2.6,21,3.7,31.7,3.9c2.1,0,4.1,0.1,6.2,0.7c7.3,2.4,12.1,9,12,16.7c-0.1,7.6-5.2,14.3-12.6,16.2
	c-2,0.5-4.1,0.6-6.2,0.6c-19.1,0-37.6-3.2-55.6-9.5c-39.9-13.9-70.9-38.9-93.4-74.6c-0.6-1-1.3-2.1-2-3.1c-2.9-4.3-3.8-9-2.7-14
	C197.1,376.4,197.3,375.8,197.5,374.9z"/>
<path class="st0" d="M450.9,377.3c2.7,3.8,4.3,7.7,3.6,12.2c-0.5,3.3-1.8,6.1-4.1,8.5c-4.5,4.7-11.4,6-17.3,3.3
	c-6-2.8-9.4-9-8.6-15.7c0.8-7,5.6-11.6,14-13.4c-0.4-0.6-0.6-1.3-1-1.8c-4.6-6.3-5-12.9-1.2-19.7c5.7-10,9.6-20.7,11.5-32.1
	c3.5-20.9,0.5-40.9-8.8-59.9c-1.1-2.2-2.4-4.3-3.4-6.5c-4.5-9.4,0-20.3,9.8-23.8c7.2-2.5,15.2,0,19.6,6.3c0.6,0.8,1.1,1.6,1.5,2.5
	c8.2,14.7,13.6,30.4,15.8,47.2c3.8,28.4-1.3,55.2-14.7,80.5c-0.5,0.9-0.9,1.7-1.4,2.6c-2.8,5.2-7.2,8.2-13,9.2
	c-0.4,0.1-0.7,0-1.1,0.1C452,377,451.7,377.1,450.9,377.3z"/>
<path class="st0" d="M248.3,341.6c1.2-0.1,2.2-0.1,3.1-0.1c7.2-0.4,12.6,2.5,16.3,8.7c4.8,8.1,10.5,15.5,17.3,21.9
	c14.9,14,32.5,22.7,52.8,25.7c4.9,0.7,9.8,1,14.7,1.2c4,0.2,7.5,1.3,10.5,3.8c5.7,4.6,7.9,12.1,5.5,18.9
	c-2.7,7.6-9.7,11.5-15.6,11.6c-7.8,0.1-15.5-0.5-23.1-1.8c-22.1-3.9-42-12.7-59.6-26.6c-11.6-9.2-21.3-20-29.3-32.4
	c-1-1.5-2-3.1-3-4.7c-2.8-4.7-3.4-9.6-1.6-14.9c0.3-0.9,0.6-1.8,1-3c-1.3,0-2.4,0-3.5,0c-7.9-0.2-14.2-6.3-14.7-14.2
	c-0.4-6.8,4-14.4,13-15.9c6-1,14.2,2.2,16.7,10.8c0.9,2.9,0.7,5.8-0.1,8.7C248.7,339.9,248.5,340.6,248.3,341.6z"/>
<path class="st0" d="M369.8,191.9c-0.3,0.7-0.6,1.2-0.8,1.7c-3.1,7.1-8.5,10.8-16.4,11c-9.4,0.2-18.6,1.4-27.6,4.1
	c-23.8,7.3-42.2,21.5-55.4,42.6c-0.6,1-1.2,2.1-1.9,3.1c-4.2,6.2-11.7,9-18.7,7.1c-7.3-2-12.4-8.3-12.8-15.8
	c-0.2-3.5,0.8-6.8,2.6-9.8c3.1-5.3,6.5-10.4,10.4-15.2c20.1-25.1,46-41,77.4-47.7c8.5-1.8,17.2-2.6,26-2.7c5.5-0.1,10,2,13.6,6.2
	c0.5,0.6,1.1,1.3,1.7,2.1c1.1-0.7,1.2-1.9,1.8-2.7c3.1-4.8,7.5-7.4,13.2-7.4c6.7,0,12.7,4.7,14.5,11.1c1.7,6.4-0.8,13.2-6.3,16.8
	c-5.6,3.7-13.1,3.2-18.2-1.2C371.8,194,370.9,193,369.8,191.9z"/>
<path class="st0" d="M410.2,354.7c3.3,4,4.8,8,4.4,12.6c-0.3,3.4-1.6,6.4-3.9,9c-4.4,5-11.7,6.6-17.8,4c-6.4-2.8-10.3-9.5-9.4-16.4
	c0.6-4,2.5-7.4,5.6-10.1c3-2.5,6.6-3.5,10.8-3.7c-0.4-0.7-0.6-1.1-0.9-1.5c-5.3-6.6-5.6-13.6-1.5-20.9c3-5.4,5-11.2,5.9-17.3
	c1.7-11.3,0-22-5.1-32.2c-0.6-1.2-1.3-2.4-1.9-3.6c-3.9-8.2-0.8-17.9,7-22.3c7.9-4.5,17.8-2.2,22.7,5.5c3.7,5.7,6.3,11.9,8.3,18.4
	c7.3,24.2,4.7,47.3-7.5,69.4c-2.9,5.2-7.3,8.1-13.3,8.8C412.8,354.4,411.9,354.5,410.2,354.7z"/>
<path class="st0" d="M277.3,326.1c-1.7,0-2.9,0-4.1,0c-8.5-0.1-15.4-7.1-15.3-15.6c0-8.5,6.6-15.3,15-15.5
	c11.3-0.4,19.1,10.6,15.1,21.2c-0.3,0.9-0.8,1.8-1.3,2.9c0.8,0,1.3,0.1,1.9,0c7.8-1.2,13.7,1.6,17.9,8.2c2.3,3.6,4.7,7.2,7.7,10.3
	c10.1,10.4,22.4,15.6,36.8,16.3c0.9,0,1.7,0,2.6,0.1c7.5,0.3,15.1,6.5,15.9,15.7c0.7,8.7-5,16.4-13.4,18.2c-1.5,0.3-3.2,0.4-4.8,0.3
	c-25.8-0.5-47.3-10.6-64.6-29.8c-3.4-3.8-6.2-7.9-8.9-12.2c-3.8-6-4.4-12.1-1.1-18.5C276.9,327.3,277,326.8,277.3,326.1z"/>
<path class="st0" d="M368.8,225.2c4.2-8.9,10-12.3,17.9-11.2c6.4,0.9,12,6.4,12.9,12.9c1,6.9-2.4,13.5-8.5,16.5
	c-3.8,1.9-7.8,2.1-11.8,0.8c-3-1-4.3-2-9.5-7.5c-0.3,0.8-0.7,1.6-1,2.3c-3,6.7-8.1,10.3-15.5,10.6c-6.2,0.2-12.2,1-18.1,3.1
	c-11.4,4.1-20.3,11.2-26.9,21.4c-0.7,1-1.2,2.1-2,3.1c-3.9,5.4-9.3,8.1-15.9,7.3c-6.9-0.8-11.8-4.6-14.3-11.1
	c-1.9-4.9-1.5-9.7,1.1-14.2c2.2-3.7,4.5-7.3,7.2-10.7c14-17.6,32.1-28.2,54.2-32.1c4.5-0.8,9-1,13.6-1.1c6.4-0.1,11.4,2.5,15,7.7
	C367.7,223.6,368.1,224.2,368.8,225.2z"/>
<path class="st0" d="M352.1,712.5c-93.5,0-187,0-280.6,0c-1.2,0-2.5,0-3.7,0c-0.6,0-1.2-0.1-1.8-0.3c-1.2-0.5-1.9-1.7-1.9-2.9
	c0.1-1.2,0.9-2.4,2.1-2.7c0.6-0.2,1.2-0.2,1.8-0.3c1.2,0,2.5,0,3.7,0c186.9,0,373.8,0,560.8,0c1.2,0,2.5,0,3.7,0
	c0.7,0,1.5,0.2,2.1,0.4c1.9,0.8,2.3,3.6,0.7,4.9c-0.6,0.5-1.5,0.8-2.3,0.9c-1.2,0.2-2.5,0.1-3.7,0.1
	C539.4,712.5,445.8,712.5,352.1,712.5z"/>
<path class="st0" d="M580.6,751c0.8,0,1.4-0.1,2-0.1c7.7,0,15.5,0,23.2,0c3.8,0,7.6,0.5,11.3,1.6c12.9,3.7,20.6,12.4,23.4,25.4
	c1.7,7.6,1.5,15.2-0.6,22.6c-4,14.5-14.8,22.1-27.8,24.1c-3.1,0.5-6.4,0.6-9.5,0.6c-6.1,0.1-12.3,0-18.4,0c-1.2,0-2.4-0.1-3.7-0.2
	c-0.1-0.9-0.3-1.6-0.3-2.3C579.7,807.7,580,754.7,580.6,751z M593.4,762.6c-0.1,1.1-0.2,1.7-0.2,2.3c0,15.5,0,31,0,46.4
	c0,0.7,0.2,1.4,0.4,2.1c4.8,0,9.5,0.3,14.1-0.1c10.2-0.9,16.9-7,19.3-16.9c1.4-5.7,1.4-11.4-0.1-17.1c-2.5-9.5-8.7-15-18.2-16.4
	C603.8,762.1,598.7,762.6,593.4,762.6z"/>
<path class="st0" d="M249.8,825.3c-3,0-5.5,0-8.1,0c-0.7,0-1.4-0.1-2.3-0.1c-1-1.9-0.1-3.9-0.8-6c-0.6,0.4-1.2,0.6-1.6,1
	c-14.2,11.1-38.1,7.9-49.1-10.8c-4.1-7.1-5.7-14.8-5.4-23c0.1-4.6,1-9.1,2.7-13.3c5.6-13.3,15.5-21.2,30-23
	c8.8-1.1,17.1,0.5,24.9,4.6c2.2,1.1,4.2,2.5,6,4.2c-0.8,2.5-3.1,6.1-6,9.8c-1.2,0-1.9-0.9-2.8-1.5c-5.4-3.5-11.3-5.3-17.8-5.1
	c-15,0.6-22.4,10.9-23.4,22.3c-0.4,4.6-0.1,9.1,1.5,13.5c3.5,9.7,10.4,15.2,20.7,16.3c3.5,0.4,6.9-0.3,10.1-1.5
	c3.6-1.3,6.9-3.3,9.8-6.3c0-1.2,0-2.7,0-4.2c0-1.3,0-2.7-0.1-4.1c-3.6-1.1-7.2,0.1-10.8-0.9c-0.4-3.6-0.3-7.1-0.1-10.7
	c0.6-0.2,1.1-0.3,1.6-0.3c6.9,0,13.7,0,20.7,0c0.2,0.8,0.4,1.3,0.4,1.9c0,11.7,0,23.3,0,35C250.1,823.7,249.9,824.2,249.8,825.3z"/>
<path class="st0" d="M460.1,751c1,0,1.9-0.1,2.8-0.1c7.4,0,14.7,0,22.1,0c2.2,0,4.4,0.2,6.6,0.5c8.9,1.2,14.4,6.4,16.8,14.9
	c1.5,5.1,1.3,10.2-0.5,15.2c-1.6,4.7-4.4,8.5-8.7,11c-0.6,0.4-1.2,0.8-1.7,1.1c5.5,10.2,10.8,20.3,16.2,30.4c0.1,0.2,0,0.5,0,0.7
	c-0.1,0.1-0.1,0.3-0.2,0.3c-0.1,0.1-0.2,0.1-0.3,0.1c-4.3,0-8.6,0-13.2,0c-0.5-0.8-1.1-1.7-1.6-2.7c-3.7-7.1-7.3-14.2-11-21.3
	c-0.6-1.2-1.2-2.4-2-3.7c-4.1-0.1-8.1-0.1-12.3,0c-0.1,1.1-0.3,2-0.3,3c0,6.9,0,13.8,0,20.6c0,1.2-0.1,2.4-0.1,3.6
	c-2.7,0.7-9.1,0.8-12.7,0.2c-0.1-0.6-0.3-1.3-0.3-2.1C459.2,808.1,459.5,754.6,460.1,751z M472.8,785.2c3,0.5,13,0.7,15,0.2
	c3.9-0.9,6.5-3.3,7.6-7.1c0.3-1.2,0.6-2.4,0.6-3.6c0.1-6.7-2.1-11.5-10.7-12c-3.8-0.2-7.6-0.1-11.4,0c-0.3,0-0.6,0.3-1.2,0.5
	C472.8,770.4,472.8,777.7,472.8,785.2z"/>
<path class="st0" d="M93,797.4c-4.3,0-8.2-0.1-12.3,0.1c-0.1,1.2-0.2,2.1-0.2,3c0,6.9,0,13.8,0,20.7c0,1.2-0.1,2.4-0.2,3.8
	c-4.2,0.5-8.2,0.2-12.5,0.2c-0.2-1-0.4-1.8-0.4-2.6c-0.1-3.4,0-6.9,0-10.3c0-19,0-38.1,0-57.1c0-1.3-0.3-2.7,0.5-4.1
	c0.9-0.1,1.9-0.2,2.8-0.2c7.4,0,14.8,0,22.1,0c2.2,0,4.4,0.2,6.6,0.5c8.9,1.3,14.4,6.5,16.8,15c1.4,5.1,1.2,10.2-0.5,15.2
	c-1.6,4.7-4.5,8.4-8.8,11c-0.5,0.3-1,0.6-1.7,1c2.8,5.3,5.6,10.4,8.4,15.5c2.8,5.2,5.6,10.3,8.5,15.9c-5.1,0.3-9.6,0.1-14.2,0.2
	c-0.5-0.9-1.1-1.7-1.6-2.5c-3.7-7.2-7.4-14.4-11.2-21.6C94.4,799.9,93.8,798.8,93,797.4z M80.8,763c-0.5,3-0.6,19,0,22.2
	c0.1,0.1,0.2,0.3,0.3,0.3c4.6,0,9.3,0.4,13.9,0c4.3-0.4,7.1-3.2,8.2-7.4c0.6-2.3,0.7-4.6,0.3-6.9c-0.7-4.4-3.2-7-7.4-8.1
	C93.4,762.4,84,762.3,80.8,763z"/>
<path class="st0" d="M381.2,658.2c-2.8,0.6-8.5,0.6-11.9,0.1c-0.1-0.7-0.3-1.4-0.3-2.1c-0.4-11.8-0.2-62.7,0.3-66.1
	c1.9-0.7,4-0.3,6.1-0.3c2-0.1,3.9,0,5.9,0c0.7,1,1.4,1.9,2,2.8c8,12.1,15.9,24.2,23.8,36.4c1.6,2.5,2.9,5.1,4.4,7.7
	c0.4,0.7,0.8,1.5,1.2,2.2c-0.2-16.2,0.3-32.2,0.1-48.4c2.1-1.1,4.2-0.5,6.3-0.6c1.9-0.1,3.9-0.2,5.8,0.2c0.2,0.5,0.3,0.9,0.3,1.2
	c0,22,0,44,0,66c0,0.3-0.2,0.7-0.3,1.2c-1.9,0.4-3.8,0.2-5.8,0.2c-2,0-3.9,0-6,0c-0.6-0.8-1.2-1.5-1.8-2.3
	c-8.1-12.3-16.2-24.6-24.3-37c-1.9-3-3.6-6.2-5.3-9.2c-0.7,0-0.7,0.6-0.6,1c0.7,14.4,0.2,28.7,0.3,43.1
	C381.6,655.6,381.7,656.9,381.2,658.2z"/>
<path class="st0" d="M537.4,781.9c8.2,0,15.9,0,23.5,0c0.9,2.8,0.9,8.3,0.1,11.7c-3.8,0-7.8,0-11.7,0c-3.9,0-7.8-0.1-11.6,0.1
	c-0.6,3-0.7,15.1-0.2,19.6c0.9,0.1,1.8,0.2,2.8,0.2c8.2,0,16.5,0,24.7,0c1.2,0,2.4,0.1,3.5,0.1c0.7,3.2,0.7,8.2,0,11.1
	c-0.1,0.1-0.2,0.2-0.3,0.2c-0.1,0.1-0.2,0.1-0.3,0.1c-0.9,0-1.7,0.1-2.6,0.1c-13.3,0-26.5,0-39.8,0c-0.2,0-0.5-0.1-0.7-0.2
	c-0.1,0-0.2-0.2-0.5-0.4c-0.1-0.6-0.2-1.5-0.2-2.3c-0.4-22.2-0.2-67.5,0.3-71c0.1-0.1,0.2-0.2,0.3-0.2c0.1-0.1,0.2-0.1,0.3-0.1
	c13.4,0,26.8-0.1,40.1-0.1c0.5,0,1,0.1,1.7,0.2c0.7,3.7,0.2,7.3,0.3,10.6c-1,1.1-2.1,0.8-3,0.8c-7.6,0-15.2,0-22.8,0
	c-1.2,0-2.4,0.1-3.8,0.1c-0.6,2.2-0.3,4.2-0.3,6.3c-0.1,2.1,0,4.2,0,6.3C537.3,777.3,537.3,779.4,537.4,781.9z"/>
<path class="st0" d="M132.2,751c14.2,0,28.2,0,42.3,0c0.8,1.8,0.4,3.7,0.4,5.4c0.1,1.8,0,3.7,0,5.2c-1,1.2-2.1,0.9-3,0.9
	c-7.6,0-15.2,0-22.8,0c-1.2,0-2.4,0.1-3.8,0.1c-0.7,2.1-0.3,4.2-0.4,6.2c-0.1,2.1,0,4.2,0,6.3c0,2.1,0,4.1,0,6.5
	c1,0.1,1.8,0.3,2.6,0.3c5.8,0,11.5,0,17.3,0c1.2,0,2.4,0,3.7,0c1,1.9,0.5,3.8,0.6,5.6c0.1,1.8,0,3.7,0,5.7c-1,0.2-1.8,0.4-2.6,0.4
	c-5.9,0-11.8,0-17.7,0c-1.2,0-2.4,0.1-3.5,0.1c-0.6,3-0.7,15.2-0.2,19.6c0.9,0.1,1.8,0.2,2.8,0.2c8.2,0,16.5,0,24.7,0
	c1.2,0,2.4,0.1,3.5,0.1c0.7,3.1,0.7,8.1,0.1,11.1c-0.1,0.1-0.2,0.2-0.3,0.3s-0.2,0.1-0.4,0.1c-13.8,0-27.5,0.1-41.2,0.1
	c-0.6,0-1.2-0.1-1.8-0.2c-0.1,0-0.2-0.1-0.5-0.4c-0.1-0.5-0.2-1.2-0.2-1.9C131.4,808.1,131.7,754.8,132.2,751z"/>
<path class="st0" d="M404.2,751c14.2,0,28.2,0,42.3,0c0.7,1.8,0.4,3.7,0.4,5.5c0.1,1.8,0,3.7,0,5.3c-1.2,1.1-2.3,0.8-3.4,0.8
	c-7.5,0-15,0-22.5,0c-1.2,0-2.4,0-3.7,0c-0.2,0.6-0.5,1.1-0.5,1.5c0,5.5,0,11,0,16.6c0,0.2,0.1,0.5,0.3,1c0.8,0.1,1.7,0.3,2.7,0.3
	c5.8,0,11.5,0,17.3,0c1.2,0,2.4,0.1,3.7,0.2c0.4,3.9,0.4,7.5,0,11.3c-2.7,0.3-5.2,0.1-7.8,0.2c-2.7,0-5.4,0-8.1,0
	c-2.6,0-5.1,0-7.8,0.1c-0.7,2.4-0.3,4.6-0.4,6.7c-0.1,2.1,0,4.2,0,6.3c0,2.2-0.2,4.4,0.2,6.8c3.6,0.3,7,0.1,10.4,0.1
	c3.4,0,6.9,0,10.3,0c3.4,0,6.8,0,10.5,0c0.6,3.9,0.2,7.5,0.3,11.2c-0.8,0.2-1.4,0.4-2,0.4c-13.5,0-27,0-40.5,0
	c-0.6,0-1.2-0.2-1.9-0.2c-0.1-0.8-0.3-1.5-0.3-2.2C403.3,810.5,403.6,754.5,404.2,751z"/>
<path class="st0" d="M327,768.1c-1-0.7-2-1.3-3-2c-3.1-2-6.5-3.3-10.2-3.9c-2.2-0.3-4.4-0.2-6.5,0.5c-1.9,0.6-3.6,1.6-4.9,3.1
	c-2.7,3.2-2.6,7.4,0.4,10.3c1.1,1.1,2.5,2,3.9,2.8c2,1.1,4.2,2,6.3,3c2.6,1.2,5.2,2.3,7.7,3.5c1.8,0.9,3.4,1.9,5.1,3
	c13.2,8.5,10.6,28-1.7,34.8c-2.4,1.3-4.9,2.3-7.6,2.7c-10.8,1.6-20.5-0.9-28.9-8c-0.5-0.5-1-1.1-1.6-1.7c2.1-3.4,4.4-6.5,6.9-9.8
	c1.1,0.8,2,1.4,2.8,2c4,2.9,8.5,4.9,13.5,5.5c2.4,0.2,4.6-0.1,6.9-0.9c5.6-2.1,7.6-9.8,2.3-14.1c-1.4-1.2-3-2.1-4.6-3
	c-2.2-1.1-4.4-2.1-6.7-3.1c-2.1-1-4.3-1.9-6.3-3c-1.8-1-3.6-2.1-5.3-3.3c-11.2-8-9.5-22.1-2.5-29.4c2.8-2.9,6.1-5.1,9.9-6.2
	c10.5-3,20.1-1.2,28.9,5.3c0.4,0.3,0.8,0.6,1,0.8C331.8,760,328.9,765.6,327,768.1z"/>
<path class="st0" d="M171.2,609.4c3.8-0.3,7.2-0.2,10.7-0.1c0.7,1.9,0.1,3.8,0.5,5.6c0.8,0.2,1.1-0.4,1.5-0.8
	c7.7-8.9,25.2-8.6,32.5,4.2c2.9,5.1,3.9,10.6,3.8,16.3c-0.1,4.2-0.8,8.3-2.5,12.2c-4.1,9-12.4,13.9-22.3,12.9
	c-3.4-0.3-6.4-1.6-9.1-3.7c-0.8-0.6-1.5-1.2-2.2-1.8c-0.9,0.4-0.7,1.1-0.7,1.6c0,6,0,12,0,18c0,1.2-0.1,2.4-0.1,3.8
	c-4,0.6-7.9,0.2-11.7,0.3c-0.8-1.5-0.5-2.8-0.5-4.1c0-15.5,0-31,0-46.4c0-4.7,0-9.3,0-14C171.1,612.1,171.2,610.9,171.2,609.4z
	 M183,634.2c0,2.8,0.6,5.9,2.1,8.8c2.6,4.8,6.9,7,12.3,6.1c4.4-0.7,7.3-3.4,8.9-7.4c2.2-5.4,2.1-10.8-0.2-16.1
	c-2-4.6-5.6-7.1-10.7-7.1c-5.2,0-8.8,2.6-10.9,7.4C183.4,628.4,183,631.1,183,634.2z"/>
<path class="st0" d="M237.8,654c0,4.2,0,8.1,0,12c0,3.8,0,7.6,0,11.4c-2.1,0.9-4.1,0.5-6,0.5c-1.9,0-3.9,0.2-5.5-0.1
	c-0.4-0.3-0.5-0.4-0.5-0.5c-0.1-0.1-0.1-0.2-0.1-0.3c0-21.7-0.1-43.5-0.1-65.2c0-0.6,0.1-1.2,0.1-1.8c0-0.1,0.1-0.2,0.2-0.3
	c2.9-0.6,7.4-0.6,10.6,0c0.1,1.6,0.2,3.3,0.3,5c0.8,0.4,1.2-0.2,1.5-0.7c7.4-8.7,25.4-8.7,32.7,4.7c1.4,2.5,2.3,5.1,2.8,7.9
	c1.1,6.1,1.1,12.2-1.1,18.2c-2.5,7-7.1,12-14.4,14.1c-6.9,1.9-13.4,1.1-18.9-4c-0.3-0.2-0.6-0.5-0.9-0.7
	C238.5,654.1,238.4,654.1,237.8,654z M237.5,633.7c-0.1,3.5,0.6,6.9,2.4,9.9c2.5,4.2,6.2,6.2,11.1,5.7c4.8-0.4,8-3.1,9.7-7.4
	c2.3-5.5,2.2-11.1-0.3-16.5c-2.1-4.6-5.7-7-10.8-6.9c-5,0.1-8.6,2.6-10.6,7.2C237.9,628.3,237.4,630.9,237.5,633.7z"/>
<path class="st0" d="M109.6,596c-1.6,3.3-3.3,6.5-5.2,9.8c-1-0.6-2-1.1-2.9-1.7c-3.5-2.2-7.2-3.7-11.4-3.9c-2.2-0.1-4.4,0.1-6.5,1.1
	c-1.4,0.6-2.5,1.5-3.4,2.7c-2.1,2.8-2,6.6,0.5,9.1c1.1,1.1,2.5,2,3.9,2.8c2.2,1.2,4.4,2.1,6.7,3.1s4.5,1.9,6.7,3
	c1.6,0.8,3.2,1.8,4.8,2.7c12.4,7.9,10,25.2-0.9,31.8c-2.6,1.5-5.3,2.6-8.2,3c-9.4,1.3-18.1-0.6-25.8-6.2c-1.1-0.8-2.3-1.5-2.9-3
	c2-2.8,4.1-5.7,6.1-8.4c1.4-0.2,2,0.7,2.7,1.2c3.6,2.6,7.6,4.5,12.1,5.2c2.5,0.4,4.9,0.3,7.3-0.5c2.7-1,4.6-2.7,5.3-5.6
	c0.6-2.5,0.2-4.7-1.6-6.5c-1.3-1.3-2.8-2.4-4.4-3.3c-2.5-1.3-5.1-2.4-7.7-3.6c-2.4-1.2-4.9-2.2-7.3-3.5c-1.5-0.8-2.9-1.8-4.3-2.8
	c-9.5-7.1-8.1-19.2-2.8-25.5c3.9-4.7,9.1-7.2,14.9-7.9c6.9-0.9,13.5,0.2,19.6,3.6C106.4,593.3,108,594.2,109.6,596z"/>
<path class="st0" d="M373,824.9c-0.9,0.2-1.4,0.3-1.8,0.3c-3.5,0-7.1,0-10.8,0c-0.2-0.8-0.5-1.5-0.5-2.2c-0.1-2.5,0-4.9,0-7.4
	c0-16.2,0-32.4,0-48.6c0-1.3-0.1-2.7-0.1-4.2c-1.1-0.1-2-0.3-3-0.3c-5.5,0-11,0-16.6,0c-1.2,0-2.4-0.1-3.8-0.2
	c-0.4-3.8-0.4-7.5-0.1-11.2c0.6-0.1,1.1-0.2,1.5-0.2c19.4,0,38.8,0,58.1,0c0.8,2.4,1,6.1,0.5,11c-0.8,0.8-1.8,0.6-2.8,0.6
	c-5.5,0-11,0-16.6,0c-1.2,0-2.4,0.1-3.7,0.1c-0.8,1.4-0.5,2.8-0.5,4.1c0,13.5,0,27,0,40.5c0,4.5,0,9.1,0,13.6
	C373,822.1,373,823.3,373,824.9z"/>
<path class="st0" d="M559,659.7c-6.9,0-13-2-18.3-6.4c-12.1-10.2-11.9-30.2,1.5-40c10-7.3,24.6-7.1,34.4,0.5
	c13.6,10.6,12.8,31.8-1.6,41.3C570.3,658.2,565.1,659.7,559,659.7z M573.7,634c0-0.7,0.1-1.5,0-2.2c-0.7-7.1-6-12.5-13.1-13.3
	c-6.1-0.7-12.7,2.6-15.3,9.7c-1.4,3.8-1.4,7.7,0,11.5c2.8,7.9,11.1,11.3,18.5,8.8C570,646.4,573.7,640.9,573.7,634z"/>
<path class="st0" d="M296.3,675.6c0.9-2.9,2.2-5.7,3.8-8.7c0.9,0.4,1.6,0.8,2.4,1.1c3.7,1.3,7.1,0.4,9.6-2.6c1.7-2,2.5-4.5,3.4-6.9
	c0.4-1-0.2-1.9-0.6-2.8c-2.7-6.2-5.3-12.4-8-18.6c-3.4-8-6.9-16-10.3-24c-0.5-1.1-1.3-2.1-1-3.4c2.6-0.5,8.7-0.6,13-0.2
	c0.3,0.6,0.7,1.2,0.9,1.8c3.2,8.8,6.4,17.5,9.6,26.3c0.7,1.8,1.2,3.7,1.9,6.1c1.4-4.2,2.6-7.9,3.8-11.5c1.3-3.8,2.6-7.7,3.9-11.5
	c1.3-3.7,2.5-7.4,3.8-11c3.3-0.5,10.1-0.5,13.1,0.1c-0.2,0.8-0.4,1.6-0.7,2.4c-7,18-13.9,36-20.9,53.9c-0.7,1.8-1.6,3.6-2.7,5.2
	c-6,8.8-17.3,9.7-24.5,5.2C296.7,676.2,296.6,675.9,296.3,675.6z"/>
<path class="st0" d="M462.6,627.5c0.1-6-2.4-8.8-7.6-9.3c-3.5-0.3-6.8,0.4-10,1.8c-1.7,0.7-3.3,1.6-5.1,2.5c-2-2.5-3.2-5.5-4.6-8.4
	c0.7-0.5,1.2-1,1.8-1.4c7.3-4.2,15-5.9,23.4-4.2c8.3,1.6,13.6,7.5,14.4,16c0.1,1.1,0.1,2.2,0.1,3.3c0,9.1,0,18.2,0,27.3
	c0,1.1-0.1,2.1-0.2,3.1c-3.6,0.6-8,0.6-11-0.1c0-1.8,0-3.6,0-5.3c-1.2-0.5-1.5,0.5-1.9,1c-6.1,7.4-16.6,6.8-22.2,3.8
	c-6.5-3.5-9-10.2-7.3-17.3c0.8-3.2,2.9-5.7,5.6-7.5c2.5-1.7,5.2-2.8,8-3.5c3.9-1,7.9-1.6,12-1.6C459.5,627.6,461,627.5,462.6,627.5z
	 M462.7,636.3c-0.3-0.1-0.7-0.3-1-0.3c-3.5-0.2-6.9,0.1-10.2,0.9c-1.5,0.4-3,1-4.4,1.8c-2.2,1.3-3.1,3.4-2.7,6
	c0.4,2.6,1.9,4.2,4.3,5c2.4,0.7,4.8,0.6,7.2-0.5C460.3,646.9,463.2,641.6,462.7,636.3z"/>
<path class="st0" d="M150.2,609.2c4.2,0,7.9-0.2,11.9,0.2c0.1,0.8,0.2,1.4,0.2,2c0,15.6,0,31.2,0,46.7c-2.7,0.8-8,0.9-11.6,0.2
	c-0.6-2.2,0.1-4.7-0.5-7.6c-0.9,1-1.4,1.6-1.9,2.2c-6.4,7.6-16.1,8-22.8,5.6c-4.1-1.5-6.6-4.6-8-8.6c-0.9-2.5-1.2-5-1.2-7.6
	c0-10.3,0-20.6,0-31c0-0.6,0.2-1.2,0.3-1.9c0.8-0.1,1.5-0.2,2.3-0.2c3,0,6.1,0,9,0c1,1.2,0.7,2.3,0.7,3.4c0,8.5,0,17,0,25.4
	c0,1.8,0.2,3.7,0.6,5.5c0.8,3.2,2.8,4.7,6,5c5.3,0.4,9.3-1.7,12.1-6.2c1.4-2.2,2.3-4.6,2.5-7.2c0.2-1.8,0.2-3.7,0.3-5.5
	c0-5.4,0-10.8,0-16.2C150,612.1,150.1,610.9,150.2,609.2z"/>
<path class="st0" d="M591.5,658.7c0-16.7,0-32.8,0-49c1.9-0.9,3.9-0.5,5.8-0.5c1.8,0,3.7-0.2,5.6,0.3c0.6,2.4,0,4.9,0.4,7.2
	c1.1,0,1.3-0.8,1.7-1.3c5.3-6.9,14.5-8.9,22.7-6.4c4.1,1.3,7.1,4,8.5,8c0.8,2.3,1.5,4.8,1.5,7.2c0.2,11.1,0.1,22.1,0.1,33.2
	c0,0.2-0.1,0.5-0.2,0.9c-1.8,0.8-3.8,0.4-5.7,0.4c-1.9,0-3.9,0.3-5.7-0.2c-0.8-1.4-0.5-2.8-0.5-4.1c0-7.9,0-15.7,0-23.6
	c0-1.8-0.1-3.7-0.4-5.5c-0.6-3.6-2.5-5.5-6.1-5.8c-4.9-0.5-9,1.1-12,5c-1.9,2.3-3,5.1-3.3,8.1c-0.2,1.6-0.2,3.2-0.2,4.8
	c0,5.8,0,11.5,0,17.3c0,1.2-0.1,2.4-0.1,3.8C599.6,659,595.7,658.4,591.5,658.7z"/>
<path class="st0" d="M478.8,610.1c2.1-0.1,4-0.2,6.2-0.4c0.4-2.4,0.2-4.8,0.2-7.1c0-2.2,0-4.4,0-6.5c2.9-0.7,8.2-0.8,11.7-0.1
	c0.7,4.4-0.1,9,0.5,13.6c3.6,0.7,7.2,0,10.7,0.5c0.5,3.2,0.4,6.2,0.1,9.3c-3.6,0.6-7.2-0.1-10.8,0.5c-0.1,0.8-0.2,1.5-0.2,2.2
	c0,5.4,0,10.8,0,16.2c0,0.4,0,0.7,0,1.1c0.3,5,2.9,7.9,7.9,8.7c1.2,0.2,2.4,0.2,3.6,0.3c0.7,2.7,0.8,6.1,0.2,10.1
	c-0.6,0.1-1.3,0.4-2,0.5c-3.8,0.2-7.6-0.2-11.2-1.5c-6.2-2.4-9.7-6.9-10.5-13.5c-0.2-1.8-0.3-3.7-0.3-5.5c0-4.9,0-9.8,0-14.8
	c0-1.2-0.1-2.4-0.1-3.7c-1.9-0.8-3.8-0.1-5.6-0.6C478.4,617.4,478.3,615.3,478.8,610.1z"/>
<path class="st0" d="M262.6,751c4.2-0.1,8.2-0.3,12.2,0.1c0.1,0.5,0.3,0.9,0.3,1.2c0,23.7,0,47.3,0,71c0,0.5-0.1,0.9-0.2,1.4
	c-2.8,0.7-9.5,0.7-12.6,0c-0.1-0.9-0.2-1.8-0.2-2.8C261.8,796.2,262,754.7,262.6,751z"/>
<path class="st0" d="M291.5,590.2c0,1.5,0,2.9,0,4.2c0,15.1,0,30.2,0,45.3c0,1.3,0,2.7,0.2,4c0.5,3.1,1.4,4,4.5,4.5
	c0.6,0.1,1.2,0.1,2,0.2c0.6,3.4,0.3,6.6,0.2,10.1c-0.8,0.2-1.4,0.5-2.1,0.5c-2.2,0-4.4,0-6.6-0.3c-4.8-0.8-8-3.6-9.3-8.3
	c-0.5-1.8-0.7-3.6-0.9-5.4c-0.1-2.1-0.1-4.2-0.1-6.3c0-14.8,0-29.7,0-44.5c0-1.3-0.2-2.7,0.3-3.9
	C282.6,589.5,287.9,589.5,291.5,590.2z"/>
<path class="st0" d="M400.2,220.2c-0.2-7,5.4-14,14-14.1c8.8,0,14.3,7,14.2,14.3c-0.1,7.1-5.5,13.9-14.2,13.9
	C405.4,234.2,400,227,400.2,220.2z"/>
<path class="st0" d="M250.6,275c6.9-0.2,13.9,5.5,14,14c0.1,7.7-6.3,14.1-14,14.1c-7.9,0-14.2-6.4-14.2-14.3
	C236.5,280.7,243.5,274.8,250.6,275z"/>
<path class="st0" d="M392.1,410.5c-7.7,0.1-14.2-6.1-14.2-13.9c-0.1-8,6.1-14.4,14.1-14.3c7.8,0,14,6,14,14
	C406.1,404.2,400,410.3,392.1,410.5z"/>
<path class="st0" d="M526.3,609.2c0.5,3.7,0.5,46,0,48.9c-2.5,0.6-7,0.7-11.4,0.2c-0.7-1.2-0.4-2.5-0.4-3.8c0-12.3,0-24.6,0-36.8
	c0-2,0-3.9,0-5.9c0-0.7,0.1-1.4,0.2-2.3C518.6,608.9,522.4,609.2,526.3,609.2z"/>
<path class="st0" d="M397.4,171.9c-0.2-6.3,5-13.1,13.1-13.1c7.4,0,13.1,6,13.1,13.2c0,6.8-5.4,13.1-13.1,13.1
	C402.1,185,397.2,178,397.4,171.9z"/>
<path class="st0" d="M197.5,316.6c-0.3-6.4,4.8-13.2,12.9-13.3c7.9-0.1,13.2,6.4,13.3,12.9c0.1,6.5-4.8,13.2-12.9,13.3
	C202.2,329.7,197.3,322.6,197.5,316.6z"/>
<path class="st0" d="M422.6,417.3c0-7.2,5.9-13.1,13.1-13.1c7.2,0,13.1,5.9,13.1,13.1c0,7.2-5.9,13.1-13.2,13.1
	C428.4,430.4,422.6,424.5,422.6,417.3z"/>
<path class="st0" d="M441.5,217.9c-6.8-0.1-12.4-5.8-12.2-12.6c0.2-6.7,5.4-12.6,12.9-12.4c8.2,0.2,12.4,7.1,12.2,13
	C454.2,211.6,449.3,218.1,441.5,217.9z"/>
<path class="st0" d="M391,415.3c7.1,0,12.6,5.6,12.5,12.7c-0.1,6.9-5.6,12.4-12.5,12.4c-6.9,0-12.7-5.8-12.6-12.8
	C378.5,420.8,384.2,415.3,391,415.3z"/>
<path class="st0" d="M223.9,285c-6.9,0-12.5-5.3-12.6-12.2c-0.1-7,5.5-12.8,12.4-12.8c6.9-0.1,12.7,5.7,12.6,12.7
	C236.3,279.5,230.8,285,223.9,285z"/>
<path class="st0" d="M434.2,164.6c-6.1,0-11-4.9-10.9-11.1c0-6.1,4.9-11.1,11-11.1c6.1,0,11.3,5.1,11.2,11.3
	C445.2,160.5,439.5,164.9,434.2,164.6z"/>
<path class="st0" d="M450.7,447c0.1,6.1-4.7,11.1-10.8,11.2c-6.3,0.1-11.4-4.9-11.3-11.1c0-6,5-11,11-11
	C445.6,436,450.6,440.9,450.7,447z"/>
<path class="st0" d="M391.4,121.9c-0.1-6.1,4.7-11,10.7-11.2c4.9-0.2,11.2,3.6,11.3,11.1c0.1,6-5,11-11,11
	C396.4,132.9,391.5,128,391.4,121.9z"/>
<path class="st0" d="M482.9,446.4c-5.4,0.2-10.9-4.4-10.9-11c0-5,3.7-11,11-11c7.6,0,11.2,6.5,11.1,11.3
	C494,441.3,489.2,446.7,482.9,446.4z"/>
<path class="st0" d="M193.9,305c0,6.1-4.9,11-11,11c-6.1,0-11-4.8-11.1-10.9c-0.1-4.9,3.7-11.2,11.2-11.2
	C189,293.9,193.9,299,193.9,305z"/>
<path class="st0" d="M171.2,359.5c-6.1,0-11-4.9-11.1-10.9c0-6,4.9-11.1,10.9-11.1c7.6,0,11.3,6.3,11.2,11.2
	C182.1,354.7,177.3,359.5,171.2,359.5z"/>
<path class="st0" d="M466,196.4c-5.4,0.2-10.9-4.5-10.9-11c0-4.8,3.7-10.8,11.1-10.9c6,0,11,5.1,10.9,11.1
	C477,192,471.5,196.7,466,196.4z"/>
<path class="st0" d="M407.1,458.8c0.2,5-3.9,10.9-11,11c-6,0.1-11-5.1-11-11.1c0-6,5-11,11.1-10.9
	C402.3,447.8,407.1,452.7,407.1,458.8z"/>
<path class="st0" d="M194.6,272.5c-6.2,0-11-4.7-11.1-10.8c0-6.1,4.8-11,10.9-11.1c6-0.1,11.2,4.8,11.1,10.9
	C205.5,268.2,200,272.5,194.6,272.5z"/>
<path class="st0" d="M416.6,488.2c0,5.1-4.2,9.3-9.3,9.4c-5.2,0.1-9.7-4.3-9.6-9.5c0-5.3,4.4-9.5,9.7-9.4
	C412.5,478.8,416.7,483,416.6,488.2z"/>
<path class="st0" d="M495.5,161.1c0.1,5.1-4,9.3-9.2,9.5c-5.2,0.2-9.6-3.8-9.8-9.3c-0.2-5.1,4-9.4,9.2-9.5
	C491,151.7,495.4,155.8,495.5,161.1z"/>
<path class="st0" d="M163.6,265.8c-5.2,0-9.4-4-9.5-9.1c-0.1-5.3,4-9.6,9.4-9.7c4.9-0.1,9.5,3.8,9.5,9.5
	C173,261.6,168.8,265.7,163.6,265.8z"/>
<path class="st0" d="M451,483.9c-5,0-9.1-4.2-9-9.2c0.1-5,4.3-9,9.3-8.9c4.9,0.1,8.8,4.1,8.8,9C460.2,479.8,456,483.9,451,483.9z"/>
<path class="st0" d="M453,120.8c5,0.2,8.8,4.5,8.5,9.6c-0.3,4.5-4.3,8.8-9.7,8.4c-4.8-0.3-8.7-4.6-8.4-9.4
	C443.8,124.4,448,120.6,453,120.8z"/>
<path class="st0" d="M153.1,310c-5,0-9.2-4.1-9.1-9c0.1-5.6,4.8-9.1,9.2-9c4.9,0.2,8.9,4,8.9,8.9C162.2,305.9,158.1,310,153.1,310z"
	/>
<path class="st0" d="M151.9,346.5c0.1,4.3-3.4,8-7.8,8.1c-4.4,0.2-8.3-3.7-8.2-8.1c0-4.3,3.7-7.9,8-7.9
	C148.2,338.6,151.8,342.2,151.9,346.5z"/>
<path class="st0" d="M495.2,452c4.5,0,7.9,3.5,7.8,8c0,4.5-3.5,7.9-8,7.9c-4.5,0-7.9-3.5-7.9-8C487.2,455.4,490.7,452,495.2,452z"/>
<path class="st0" d="M425.6,99.1c0,4.4-3.5,8-7.9,8c-4.4,0-8-3.5-8-7.9c0-4.4,3.6-8,8-8C422,91.1,425.6,94.7,425.6,99.1z"/>
<path class="st0" d="M508.8,133.6c0,4.3-3.8,8-8.1,7.9c-4.2-0.1-7.7-3.7-7.8-7.9c-0.1-4.3,3.6-8.1,7.9-8.1
	C505.2,125.6,508.8,129.3,508.8,133.6z"/>
<path class="st0" d="M132.1,265.3c-4.4,0-8-3.7-7.9-8.1c0.1-4.4,3.8-7.9,8.1-7.8c4.2,0.1,7.6,3.7,7.7,7.9
	C140.1,261.7,136.5,265.3,132.1,265.3z"/>
<path class="st0" d="M431.5,515.2c-0.2,4.2-3.8,7.6-8,7.6c-4.4-0.1-7.8-3.7-7.8-8.1c0.1-4.4,3.8-8,8.2-7.7
	C427.9,507,431.8,510.3,431.5,515.2z"/>
<path class="st0" d="M464.2,95.1c3.9,0,7,3.2,6.9,7.1c-0.1,3.8-3.4,7-7.1,6.9c-3.8-0.1-6.9-3.2-6.9-7.1
	C457.2,98.1,460.3,95.1,464.2,95.1z"/>
<path class="st0" d="M123.2,298c3.9,0,7.1,3,7.2,6.8c0.1,3.7-3.1,7.1-6.9,7.2c-3.8,0.1-7-3.1-7.1-6.9
	C116.3,301.1,119.3,298,123.2,298z"/>
<path class="st0" d="M476.3,498.7c0,3.8-3.2,7-7,7c-3.8,0-7-3.2-7-7c0-3.9,3.1-7,7-7C473.2,491.7,476.3,494.8,476.3,498.7z"/>
<path class="st0" d="M526.5,600.4c-4.1,0-7.7,0-11.3,0c-0.8-2.4-0.9-6.1-0.3-10.3c1.8-0.8,3.8-0.4,5.7-0.4c1.8-0.1,3.7,0,5.7,0.1
	C527,593.3,526.6,596.7,526.5,600.4z"/>
<path class="st0" d="M451.4,537.6c0.1,3.5-2.6,6.4-6.1,6.5c-3.5,0.2-6.6-2.8-6.6-6.4c0-3.4,2.9-6.4,6.3-6.3
	C448.9,531.4,451.5,534.5,451.4,537.6z"/>
<path class="st0" d="M101.8,270.8c-3.5,0.1-6.4-2.6-6.6-6.1c-0.2-3.5,2.8-6.6,6.4-6.6c3.5,0,6.3,2.7,6.3,6.2
	C108,267.9,105.3,270.7,101.8,270.8z"/>
<path class="st0" d="M516.3,103.6c0,3.4-2.9,6.3-6.3,6.3c-3.5,0-6.5-3.1-6.3-6.7c0.1-3.5,3-6.1,6.5-6
	C513.7,97.3,516.3,100.1,516.3,103.6z"/>
<path class="st0" d="M90.6,316.6c-0.1-2.7,2-5,4.7-5.1c2.8-0.1,5.1,2.2,5.1,5c0,2.7-2.2,4.9-4.9,5C93,321.5,90.7,319.2,90.6,316.6z"
	/>
<path class="st0" d="M472.9,72.5c-0.1,2.7-2.4,4.9-5,4.8c-2.7-0.1-4.8-2.4-4.8-5c0-2.8,2.5-5.2,5.2-5C471,67.5,473,69.7,472.9,72.5z
	"/>
<path class="st0" d="M493.3,512c2.7,0.1,4.8,2.3,4.8,5c0,2.7-2.2,4.9-4.9,4.9c-2.8,0-5.1-2.4-5-5.2
	C488.3,514.1,490.7,511.9,493.3,512z"/>
<path class="st0" d="M118.2,360.3c-2.7,0.1-5-2-5-4.8c0-2.7,2.1-5,4.8-5c2.6-0.1,4.9,2.2,5,4.8C123.1,357.9,120.9,360.2,118.2,360.3
	z"/>
<path class="st0" d="M520.6,478c0,2.7-2.3,4.9-5,4.8c-2.7,0-4.8-2.3-4.8-5c0-2.7,2.3-4.9,4.9-4.9C518.4,473.1,520.6,475.4,520.6,478
	z"/>
<path class="st0" d="M427.8,72.2c0,2.7-2.1,4.9-4.8,5s-4.9-2.2-4.9-4.9c0-2.7,2.2-5,4.8-5C425.5,67.3,427.8,69.6,427.8,72.2z"/>
<path class="st0" d="M72.9,282.2c-2.7-0.1-4.8-2.5-4.6-5.2c0.2-2.6,2.4-4.5,4.9-4.4c2.6,0.1,4.6,2.2,4.6,4.8
	C77.9,280.1,75.5,282.3,72.9,282.2z"/>
<path class="st0" d="M470.7,560.7c-2.7,0-4.7-1.9-4.8-4.5c-0.1-2.8,2-5,4.7-5c2.6,0,5,2.4,4.8,5
	C475.4,558.7,473.3,560.7,470.7,560.7z"/>
<path class="st0" d="M517.8,72.4c0,2.6-2,4.6-4.6,4.7c-2.7,0.1-5-2.1-5-4.8c0-2.5,2.2-4.7,4.7-4.8C515.5,67.4,517.8,69.6,517.8,72.4
	z"/>
<path d="M593.4,762.6c5.4,0,10.4-0.5,15.4,0.3c9.6,1.5,15.8,7,18.2,16.4c1.5,5.7,1.5,11.4,0.1,17.1c-2.4,9.9-9.2,16-19.3,16.9
	c-4.6,0.4-9.3,0.1-14.1,0.1c-0.1-0.7-0.4-1.4-0.4-2.1c0-15.5,0-31,0-46.4C593.2,764.3,593.3,763.7,593.4,762.6z"/>
<path d="M472.8,785.2c0-7.5,0-14.8,0-22.1c0.6-0.3,0.9-0.5,1.2-0.5c3.8,0,7.6-0.2,11.4,0c8.5,0.5,10.8,5.3,10.7,12
	c0,1.2-0.3,2.5-0.6,3.6c-1.1,3.9-3.7,6.2-7.6,7.1C485.8,785.9,475.8,785.8,472.8,785.2z"/>
<path d="M80.8,763c3.1-0.7,12.5-0.6,15.2,0.1c4.3,1.1,6.8,3.6,7.4,8.1c0.4,2.3,0.3,4.7-0.3,6.9c-1.1,4.2-3.9,7-8.2,7.4
	c-4.6,0.4-9.3,0.1-13.9,0c-0.1,0-0.2-0.2-0.3-0.3C80.3,782.1,80.3,766,80.8,763z"/>
<path d="M183,634.2c0-3.2,0.5-5.8,1.5-8.3c2.1-4.7,5.7-7.3,10.9-7.4c5.1,0,8.7,2.5,10.7,7.1c2.4,5.3,2.4,10.8,0.2,16.1
	c-1.6,4-4.5,6.7-8.9,7.4c-5.4,0.8-9.7-1.3-12.3-6.1C183.6,640.2,183,637,183,634.2z"/>
<path d="M237.5,633.7c0-2.7,0.4-5.4,1.5-7.9c2-4.6,5.6-7.1,10.6-7.2c5.1-0.1,8.7,2.3,10.8,6.9c2.5,5.4,2.5,11,0.3,16.5
	c-1.8,4.3-5,6.9-9.7,7.4c-4.9,0.5-8.6-1.5-11.1-5.7C238.1,640.5,237.4,637.2,237.5,633.7z"/>
<path d="M573.7,634c0,6.9-3.7,12.4-9.8,14.5c-7.4,2.5-15.7-0.9-18.5-8.8c-1.4-3.8-1.4-7.7,0-11.5c2.5-7,9.1-10.3,15.3-9.7
	c7.1,0.8,12.4,6.2,13.1,13.3C573.7,632.5,573.7,633.3,573.7,634z"/>
<path d="M462.7,636.3c0.5,5.3-2.3,10.6-6.8,12.8c-2.3,1.2-4.8,1.2-7.2,0.5c-2.4-0.7-4-2.4-4.3-5c-0.4-2.6,0.5-4.6,2.7-6
	c1.3-0.8,2.8-1.5,4.4-1.8c3.3-0.8,6.8-1.2,10.2-0.9C462,636,462.4,636.2,462.7,636.3z"/>
</svg>
