<svg width="1781" height="552" viewBox="0 0 1781 552" fill="none" xmlns="http://www.w3.org/2000/svg">
<path d="M233.878 271.433L0 143.316L250.787 0L495.115 143.316L268.71 272.32V331.85L496.508 204.303V234.322L268.71 362.882V422.412L496.508 295.498V323.68L268.71 452.81V513.291L496.508 385.364L496.572 415.129L250.787 551.922L0 413.229V385.047L233.878 513.291V451.86L0 323.997V295.182L233.878 422.729V362.248L0 231.788V202.023L233.878 332.8V271.37V271.433ZM250.787 28.8152L52.0073 143.316L250.787 248.899L449.327 143.316L250.787 28.8152Z" fill="white"/>
<path d="M1127.92 71.5688L987.239 427.598L901.779 231.381L975.824 62.6217H964.408C957.93 62.6217 953.61 65.7069 951.142 71.5688L890.673 211.019L830.203 71.5688C827.735 65.7069 823.108 62.6217 816.937 62.6217H786.394L869.077 251.743L792.564 428.215L653.115 71.2602C650.646 65.3984 646.327 62.3132 640.465 62.3132H610.539L778.681 489.301H785.16L881.417 271.488L975.824 489.301H982.302L1152.91 62.3132H1142.11C1135.64 62.3132 1131.32 65.3984 1128.85 71.2602L1127.92 71.5688Z" fill="white"/>
<path d="M1428.42 78.0468V256.987H1205.36V62.621H1182.53C1174.2 62.621 1167.1 69.4084 1167.1 78.0468V489.609H1186.85C1197.03 489.609 1205.36 481.279 1205.36 471.098V273.03H1428.42V489.609H1448.16C1458.34 489.609 1466.67 481.279 1466.67 471.098V62.621H1443.84C1435.51 62.621 1428.42 69.4084 1428.42 78.0468Z" fill="white"/>
<path d="M1769.02 135.74C1761.62 120.314 1751.13 107.356 1737.86 96.5584C1724.59 85.7603 1708.24 77.4303 1689.12 71.26C1669.99 65.3981 1648.7 62.313 1625.25 62.313H1531.15C1522.82 62.313 1515.73 69.1004 1515.73 77.7389V489.301H1533.93C1545.04 489.301 1553.98 480.354 1553.98 469.247V78.3559H1601.8C1643.45 78.3559 1676.16 87.9199 1699.91 107.356C1723.67 126.793 1735.7 153.017 1735.7 186.645C1735.7 220.274 1723.67 246.498 1699.91 265.934C1676.16 285.371 1643.45 294.935 1601.8 294.935H1585.76V307.584H1625.25C1649.01 307.584 1670.6 304.808 1689.73 298.946C1708.86 293.084 1725.21 285.062 1738.48 274.881C1751.74 264.392 1762.23 251.743 1769.33 236.625C1776.43 221.508 1780.13 204.848 1780.13 186.645C1780.13 168.443 1776.43 150.857 1769.02 135.74Z" fill="white"/>
</svg>
