<svg width="1780" height="553" viewBox="0 0 1780 553" fill="none" xmlns="http://www.w3.org/2000/svg">
<path d="M234.109 272.354L0.230469 144.237L251.018 0.920654L495.346 144.237L268.94 273.24V332.771L496.739 205.224V235.242L268.94 363.802V423.333L496.739 296.419V324.601L268.94 453.731V514.211L496.739 386.285L496.802 416.05L251.018 552.843L0.230469 414.15V385.968L234.109 514.211V452.781L0.230469 324.918V296.102L234.109 423.649V363.169L0.230469 232.709V202.944L234.109 333.72V272.29V272.354ZM251.018 29.7359L52.2378 144.237L251.018 249.819L449.558 144.237L251.018 29.7359Z" fill="black"/>
<path d="M1126.81 72.4894L986.126 428.518L900.667 232.301L974.711 63.5424H963.296C956.817 63.5424 952.498 66.6276 950.03 72.4894L889.561 211.939L829.091 72.4894C826.623 66.6276 821.995 63.5424 815.825 63.5424H785.282L867.964 252.664L791.452 429.135L652.002 72.1809C649.534 66.319 645.215 63.2339 639.353 63.2339H609.427L777.569 490.222H784.048L880.305 272.409L974.711 490.222H981.19L1151.8 63.2339H1141C1134.52 63.2339 1130.2 66.319 1127.74 72.1809L1126.81 72.4894Z" fill="black"/>
<path d="M1427.3 78.9676V257.908H1204.25V63.5417H1181.42C1173.09 63.5417 1165.99 70.3291 1165.99 78.9676V490.53H1185.74C1195.92 490.53 1204.25 482.2 1204.25 472.019V273.951H1427.3V490.53H1447.05C1457.23 490.53 1465.56 482.2 1465.56 472.019V63.5417H1442.73C1434.4 63.5417 1427.3 70.3291 1427.3 78.9676Z" fill="black"/>
<path d="M1767.91 136.661C1760.5 121.235 1750.01 108.277 1736.75 97.479C1723.48 86.6809 1707.13 78.351 1688 72.1806C1668.87 66.3188 1647.59 63.2336 1624.14 63.2336H1530.04C1521.71 63.2336 1514.62 70.021 1514.62 78.6595V490.222H1532.82C1543.93 490.222 1552.87 481.275 1552.87 470.168V79.2765H1600.69C1642.34 79.2765 1675.05 88.8406 1698.8 108.277C1722.56 127.714 1734.59 153.938 1734.59 187.566C1734.59 221.194 1722.56 247.418 1698.8 266.855C1675.05 286.292 1642.34 295.856 1600.69 295.856H1584.65V308.505H1624.14C1647.9 308.505 1669.49 305.728 1688.62 299.866C1707.75 294.005 1724.1 285.983 1737.37 275.802C1750.63 265.312 1761.12 252.663 1768.22 237.546C1775.31 222.429 1779.02 205.769 1779.02 187.566C1779.02 169.364 1775.31 151.778 1767.91 136.661Z" fill="black"/>
</svg>
